<svg id="Layer_2" data-name="Layer 2" xmlns="http://www.w3.org/2000/svg" viewBox="0 0 841.89 595.28"><defs><style>.cls-1{fill:#fff;}.cls-2{stroke:#fff;stroke-miterlimit:10;stroke-width:10px;}</style></defs><path class="cls-1" d="M87.93,160.7v-1.5L91.09,158q4.8-2,4.8-7.66V71.92q0-6-4.8-7.66l-3.16-1.21v-1.5h39.66q15.91,0,27.41,5.94a42,42,0,0,1,17.73,17Q179,95.5,179,111q0,15.78-6.76,26.89a43.92,43.92,0,0,1-18.85,17q-12.09,5.85-28.46,5.86Zm30.5-3h6.46q10.81,0,17.42-4.28T152,139q3.08-10.14,3.08-27.87T152,83.26q-3.08-10.14-9.54-14.42t-17-4.28h-7.06Z"/><path class="cls-1" d="M234.69,163.4A48.29,48.29,0,0,1,217,160.1a45,45,0,0,1-15.17-9.84A46.59,46.59,0,0,1,191.28,134q-3.92-9.77-3.91-22.84a60.67,60.67,0,0,1,3.91-22.68,45.74,45.74,0,0,1,25.91-26.21,46.8,46.8,0,0,1,17.5-3.38,49.24,49.24,0,0,1,17.65,3.23,43.9,43.9,0,0,1,15.18,9.76,46.76,46.76,0,0,1,10.59,16.38,61.88,61.88,0,0,1,3.9,22.9,61,61,0,0,1-3.9,22.61,46.76,46.76,0,0,1-10.59,16.38A45.82,45.82,0,0,1,252.34,160,47.31,47.31,0,0,1,234.69,163.4Zm0-3.15q8.26,0,13.37-4.44t7.44-15.17q2.33-10.74,2.33-29.52T255.5,81.46q-2.33-10.74-7.44-15.18t-13.37-4.43q-8.1,0-13.22,4.43T214,81.46q-2.34,10.74-2.33,29.66T214,140.64q2.33,10.74,7.43,15.17T234.69,160.25Z"/><path class="cls-1" d="M316.87,161.15,290.28,71.77a16.86,16.86,0,0,0-2.26-5,10.76,10.76,0,0,0-4.2-2.92L282,63.05v-1.5h39.81v1.5l-3.15,1.21a9.14,9.14,0,0,0-4.66,3.3c-.8,1.3-.85,3.11-.15,5.41l16.37,62.49L348,83l-3.45-10.66a31.61,31.61,0,0,0-2-4.81,6.66,6.66,0,0,0-3-2.7l-3.31-1.81v-1.5H374v1.5l-4.66,1.81c-2,.7-3.13,1.72-3.38,3.08a10.77,10.77,0,0,0,.68,5.18L385.67,137l18-62.64a16.4,16.4,0,0,0,.75-6.31q-.3-2.7-3.75-3.9l-3.16-1.06v-1.5h20.88v1.5l-3.9,1.51a7.16,7.16,0,0,0-4.21,3.3,27,27,0,0,0-2.1,5.56l-24.94,87.73H372.9L350.36,90.54l-23.13,70.61Z"/><path class="cls-1" d="M424.42,160.7v-1.5l5-1.51a6.09,6.09,0,0,0,3.91-2.93,10.66,10.66,0,0,0,1.2-5.18V77.32c-1.11-2.4-2-4.2-2.63-5.4a14.66,14.66,0,0,0-2.18-3.08q-1.2-1.28-3.3-3.23l-2.56-2.56v-1.5h26.59l49.87,68.05V73a14.29,14.29,0,0,0-1-5.41,5.37,5.37,0,0,0-4-3.15l-5-1.36v-1.5h21.48v1.5l-4.06,1.36a4.58,4.58,0,0,0-3.3,3.15,20.58,20.58,0,0,0-.6,5.26v88.33h-8.41L438.09,82.28v67.3a13,13,0,0,0,.9,5.11,5.59,5.59,0,0,0,3.76,3l4.5,1.51v1.5Z"/><path class="cls-1" d="M519.06,160.7v-1.5l3-1.21a6.86,6.86,0,0,0,4-2.85,10.11,10.11,0,0,0,1-4.81V71.92a10.86,10.86,0,0,0-.9-4.81q-.9-1.8-4-2.85l-3-1.21v-1.5h38.61v1.5l-3,1.21a6.83,6.83,0,0,0-4,2.85,10.14,10.14,0,0,0-1,4.81v78.41a9.64,9.64,0,0,0,1,4.73,7.55,7.55,0,0,0,4,2.93l3,1.21v1.5Z"/><path class="cls-1" d="M566.23,160.7v-1.5l5-1.51a6,6,0,0,0,3.9-2.93,10.55,10.55,0,0,0,1.2-5.18V77.32q-1.65-3.6-2.63-5.4a14.63,14.63,0,0,0-2.17-3.08q-1.22-1.28-3.31-3.23l-2.55-2.56v-1.5h26.59l49.87,68.05V73a14.29,14.29,0,0,0-1-5.41,5.36,5.36,0,0,0-4-3.15l-5-1.36v-1.5h21.49v1.5l-4.06,1.36a4.59,4.59,0,0,0-3.31,3.15,20.58,20.58,0,0,0-.6,5.26v88.33h-8.41L579.9,82.28v67.3a13,13,0,0,0,.9,5.11,5.59,5.59,0,0,0,3.75,3l4.51,1.51v1.5Z"/><path class="cls-1" d="M710.74,163.4q-15.32,0-27-6.38a45.38,45.38,0,0,1-18.18-18.18Q659.06,127,659.07,111q0-15.61,6.46-27.34a45,45,0,0,1,18.7-18.25q12.24-6.52,29.67-6.53a58,58,0,0,1,14.79,1.8,55.38,55.38,0,0,1,13,5.26l.6,21h-1.5l-8.42-15.62a22.52,22.52,0,0,0-3.6-5.41,11.2,11.2,0,0,0-4.21-2.56,38.37,38.37,0,0,0-4.43-1.12,30.36,30.36,0,0,0-5.33-.38,28.14,28.14,0,0,0-16.45,5q-7.14,4.95-11,15.77T683.4,111q0,17.43,3.68,28.4t10.44,16a25.43,25.43,0,0,0,15.62,5,15,15,0,0,0,2.63-.23c.85-.15,1.68-.32,2.48-.52a4.59,4.59,0,0,0,3.76-2.41,11,11,0,0,0,.9-4.65V122.84q0-5.85-6-7.21l-6.91-1.8v-1.5h42.36v1.5l-2.1.6q-5.71,1.8-5.71,7.51v32.6a73.06,73.06,0,0,1-15.85,6.61A66.55,66.55,0,0,1,710.74,163.4Z"/><path class="cls-1" d="M107.09,341v-1.5l3-1q5.1-1.65,5.11-8.57V252.93a14.08,14.08,0,0,0-.68-4.81q-.67-1.8-3.53-3l-3.9-1.8v-1.5h29l27.79,72.7L190,241.82H219.6v1.5l-2.4.9a7,7,0,0,0-3.91,2.93,10,10,0,0,0-1,4.88v78.56a11.56,11.56,0,0,0,.75,4.66c.5,1.1,1.7,2.06,3.61,2.86l3,1.35V341H182.2v-1.5l3.15-1.35c1.9-.8,3.1-1.76,3.61-2.86a11.56,11.56,0,0,0,.75-4.66V296.8l.3-43L158.61,341H151.1l-32.75-86.08.45,37.41v37.85a12.39,12.39,0,0,0,1,5.34,5.94,5.94,0,0,0,3.83,2.93l3.3,1V341Z"/><path class="cls-1" d="M224.1,341v-1.5l3.76-1.35a13.18,13.18,0,0,0,4.66-2.93,12.83,12.83,0,0,0,2.7-4.89l31-88.78h12.76l30.5,89.39a16.08,16.08,0,0,0,2.7,5,11.5,11.5,0,0,0,4.66,2.93l1.8.6V341H280.44v-1.5l2.25-.75q3.15-1.2,3.83-3.38a8.83,8.83,0,0,0-.23-5.19l-7.06-21.63H245.89l-7.21,21.18A11.15,11.15,0,0,0,238,335c.25,1.3,1.43,2.36,3.53,3.16l3.3,1.35V341Zm22.84-35.45h31.39l-15.17-46.72Z"/><path class="cls-1" d="M331.81,341v-1.5l4.51-1.2q5.25-1.5,5.26-7.51V302.2l-24.79-50.47a25.14,25.14,0,0,0-2.48-4.51,8.73,8.73,0,0,0-3.38-2.55l-2.7-1.35v-1.5h40.26v1.5l-2.71,1.05q-3.3,1.35-3.6,3.68a11.28,11.28,0,0,0,1.2,5.78l17.72,39.36,19.83-40.86a9.12,9.12,0,0,0,1-5q-.23-2.55-3.23-3.3l-2.1-.75v-1.5h18v1.5l-2.85,1.05a8.72,8.72,0,0,0-4.21,2.93,30.56,30.56,0,0,0-2.7,4.73l-20.58,43.26v35.46a9.4,9.4,0,0,0,1.12,4.88,6.24,6.24,0,0,0,4,2.63l4.65,1.2V341Z"/><path class="cls-1" d="M428.85,341v-1.5l2.7-1a8.35,8.35,0,0,0,4.14-3,9,9,0,0,0,1.12-4.81V252.18a9.34,9.34,0,0,0-1.12-5,7.64,7.64,0,0,0-4.14-2.85l-2.7-1.05v-1.5H472q18.33,0,26.44,6.68a21,21,0,0,1,8.11,16.9q0,7.67-5.93,13.9t-20.35,8.78q16.51,1.8,24.18,8.64a21.44,21.44,0,0,1,7.66,16.6A24.34,24.34,0,0,1,510,323a23.64,23.64,0,0,1-7.14,8.94q-5,4.05-13.74,6.53T467,341Zm30.19-53h6.46q10.06,0,14.5-4.65t4.43-16.23q0-12-4.05-17.12t-13.22-5.11H459Zm0,50h7.52q11.26,0,16.75-6t5.48-18.78q0-12-5.26-17.13t-17.27-5.1H459Z"/><path class="cls-1" d="M511.17,341v-1.5l3.76-1.35a11.15,11.15,0,0,0,7.36-7.82l30.94-88.78H566l30.5,89.39a16.08,16.08,0,0,0,2.7,5,11.44,11.44,0,0,0,4.66,2.93l1.8.6V341H567.5v-1.5l2.26-.75q3.15-1.2,3.83-3.38a8.91,8.91,0,0,0-.23-5.19l-7.06-21.63H533l-7.21,21.18a11.12,11.12,0,0,0-.67,5.26c.24,1.3,1.42,2.36,3.53,3.16l3.3,1.35V341ZM534,305.51h31.4l-15.17-46.72Z"/><path class="cls-1" d="M610.32,341v-1.5l3.15-1.2q3.15-1.2,4-2.93a11.16,11.16,0,0,0,.83-4.74V252.18a10.89,10.89,0,0,0-.9-4.81c-.6-1.2-1.91-2.15-3.91-2.85l-3.15-1.2v-1.5h38.3v1.5l-2.7,1.2a7,7,0,0,0-3.91,2.93,10,10,0,0,0-1,4.88V338h23.13c3.71,0,6.44-.91,8.19-2.71a28.71,28.71,0,0,0,5-7.81l5.86-12.62h1.5L683.32,341Z"/><path class="cls-1" d="M690.08,341v-1.5l3.16-1.2q3.15-1.2,4-2.93a11.18,11.18,0,0,0,.82-4.74V252.18a10.89,10.89,0,0,0-.9-4.81q-.9-1.8-3.9-2.85l-3.16-1.2v-1.5h38.31v1.5l-2.71,1.2a7,7,0,0,0-3.9,2.93,10,10,0,0,0-1,4.88V338h23.13c3.7,0,6.43-.91,8.19-2.71a28.71,28.71,0,0,0,5-7.81l5.86-12.62h1.5L763.09,341Z"/><path class="cls-1" d="M288.77,451.22l1.06-21.33A48.65,48.65,0,0,1,301,425.53a58,58,0,0,1,15.09-1.8q12,0,19.38,3.38a23.37,23.37,0,0,1,10.82,9.24,25.56,25.56,0,0,1,3.45,13.22q0,10.37-10.06,20.2t-27.49,21.71q-3.31,2.4-7.81,5.86T296,504.1h56.34v17.12h-66.1V508.61q5.41-5.26,10.59-10.44l9.84-9.84q10.82-11.11,16.15-19.76A34.73,34.73,0,0,0,328.13,450q0-10.36-3.75-16.75a12.25,12.25,0,0,0-11.27-6.38,16.81,16.81,0,0,0-8.64,2.32q-4,2.34-7,8l-7.21,14Z"/><path class="cls-1" d="M396,523.48a30.58,30.58,0,0,1-16.9-5.11q-7.89-5.1-12.69-16.07t-4.81-28.55q0-17.72,4.81-28.76t12.69-16.15a30.5,30.5,0,0,1,33.8,0q7.89,5.1,12.77,16.15t4.88,28.76q0,17.58-4.88,28.55t-12.77,16.07A30.58,30.58,0,0,1,396,523.48Zm0-3a10.46,10.46,0,0,0,6.39-2c1.75-1.3,3.17-3.65,4.28-7.06a65.85,65.85,0,0,0,2.4-14.2q.75-9.08.75-23.51t-.75-23.66a66.36,66.36,0,0,0-2.4-14.34c-1.11-3.4-2.53-5.76-4.28-7.06a11.43,11.43,0,0,0-12.77,0c-1.76,1.3-3.18,3.63-4.29,7a65.15,65.15,0,0,0-2.4,14.27q-.75,9.24-.75,23.81t.75,23.59a64.61,64.61,0,0,0,2.4,14.19c1.11,3.36,2.53,5.69,4.29,7A10.4,10.4,0,0,0,396,520.47Z"/><path class="cls-1" d="M444.1,451.22l1-21.33a49,49,0,0,1,11.19-4.36,58.17,58.17,0,0,1,15.1-1.8q12,0,19.38,3.38a23.35,23.35,0,0,1,10.81,9.24,25.48,25.48,0,0,1,3.46,13.22q0,10.37-10.06,20.2t-27.49,21.71q-3.32,2.4-7.82,5.86t-8.41,6.76h56.33v17.12H441.55V508.61q5.4-5.26,10.59-10.44t9.84-9.84q10.81-11.11,16.14-19.76A34.66,34.66,0,0,0,483.46,450q0-10.36-3.76-16.75a12.23,12.23,0,0,0-11.26-6.38,16.81,16.81,0,0,0-8.64,2.32c-2.66,1.56-5,4.24-7,8l-7.21,14Z"/><path class="cls-1" d="M551.81,523.48q-10.06,0-16.45-2.26A118.92,118.92,0,0,1,522.81,516l1.66-19.53H526l6.61,12.17q6.6,11.86,18.33,11.86a13.3,13.3,0,0,0,11.19-5.78q4.27-5.78,4.28-19.45,0-11.87-3.61-17.05T550.46,473h-9v-3h8q8,0,11.5-4.81t3.53-16.67q0-11.56-3.46-16.45a10.72,10.72,0,0,0-9.16-4.88,14.09,14.09,0,0,0-9.54,3.3A27,27,0,0,0,536,438.3l-6.76,12.62-1.5-.15,1.5-22.08A64.72,64.72,0,0,1,540,425.16a57.09,57.09,0,0,1,13.3-1.43q15.77,0,24,6.84a21.32,21.32,0,0,1,8.19,17.05q0,7.35-6.31,14t-19.83,9.24q15.31,1.35,22.23,8.26a22.73,22.73,0,0,1,6.91,16.68A24,24,0,0,1,584,510a29.51,29.51,0,0,1-12.62,9.91Q563.22,523.48,551.81,523.48Z"/><line class="cls-2" x1="102" y1="555.28" x2="752.35" y2="552.28"/></svg>