<svg id="Layer_1" data-name="Layer 1" xmlns="http://www.w3.org/2000/svg" xmlns:xlink="http://www.w3.org/1999/xlink" viewBox="0 0 841.89 595.28"><defs><style>.cls-1{opacity:0.72;}.cls-2{fill:#482a1f;}.cls-3{opacity:0.91;}.cls-4{fill:#aac1da;}</style><image id="image" width="2048" height="2048" xlink:href="../../../../../Downloads/Untitled_Artwork%2027.png"/></defs><image width="2048" height="2048" transform="translate(305.77 350.23) scale(0.13 0.11)" xlink:href="../../../../../Downloads/Untitled_Artwork%2026.png"/><use class="cls-1" transform="matrix(0.08, 0, 0, 0.08, 672.69, 146.8)" xlink:href="#image"/><use class="cls-1" transform="matrix(-0.08, 0, 0, -0.08, 168.35, 205.47)" xlink:href="#image"/><path class="cls-2" d="M168.67,118.09a1.85,1.85,0,0,1-1.5,1.48,18.07,18.07,0,0,0-2.13-.37,4.29,4.29,0,0,0-1.88.5,25.2,25.2,0,0,0-5,4.46c-.87,1.12-2.12,2.49-3.25,4,3.25-.12,6.38-.12,8.26-.12a86.85,86.85,0,0,1,14.39,1.61l3.51,1.12s3.75,1.12,5.13,2.23,4.88,4.22,4.88,6.95c0,5.33-1,9.18-3.13,11.16s-4.38,4.72-5.5,5.21a25.81,25.81,0,0,0-3.76,2.73c-1.75,1.49-2.25,3.1-5.63,4.59a134.7,134.7,0,0,1-12.64,6.95c-4.26,1.86-8.51,2.85-11.27,4.71a74.2,74.2,0,0,1-8.26,3.73,40.92,40.92,0,0,0-7.51,3.1.47.47,0,0,1-.38.12c-.37.25-.87,2.85-.87,5.21a10,10,0,0,0,.37,2.86,30.27,30.27,0,0,0,1.63,7.93,7.08,7.08,0,0,0,3.63,4.47,8.9,8.9,0,0,0,3.51.62,10,10,0,0,0,3.38-.5c2.5-.86,6.25-3.22,8.13-4.21,2.38-1.49,4.63-2.61,6.76-4l3.88-2.86a10.24,10.24,0,0,1,2.5-1.48c.88-.25,2.26-1.49,3.76-2.36s2.88-2.11,4.13-3c1-.74,2.38-1.86,3-1.86a.4.4,0,0,1,.38.37c0,.25-.25.62-.75,1.12-.88.74-1.75,1.24-3,2.36s-3.88,2.35-4.63,3.22c-.62.62-2.75,1.86-3.88,2.73s-2.88,2.23-4.5,3.35c-1.63.87-4,2.48-5.76,3.47s-5,4.1-9,5.46c-3.26,1.37-7.51,3.1-10.89,3.1-3.88,0-7-1.61-8.26-3.72a15.86,15.86,0,0,1-2.13-5.58c0-.75-1.13-5.09-1.13-7.07a3.31,3.31,0,0,1,.13-1.12c0-1-.38-3-.38-4.71a6,6,0,0,1,.38-2.24c.5-1.61,3.75-2.85,5.88-3.35,1.75-.49,8.26-3,11.26-4,3.13-.5,8.27-4.35,9.77-4.35s2.5-1.73,4.13-2.6a64.87,64.87,0,0,0,8.51-5.09c2.5-2,7-5.08,8.39-6.57a37.53,37.53,0,0,1,5.63-6.58c.62-.12,3.5-5,4.13-5.7s1.13-4,1.13-5.83-1.26-4.47-1.26-5.34c0-.62-.75,0-3-1a32,32,0,0,0-6.38-2.11c-2.38-.37-11.27-1.24-17.9-1.49a16.18,16.18,0,0,0-2,3.6c-1.25,1.61-3,1.86-4,4.59-.5,2.85-2.75,4.84-4.51,8.31a70.58,70.58,0,0,0-3.5,6.95,43.14,43.14,0,0,0-4.51,6.32c-1.12,2.48-3.5,5.21-4.75,7.57a88.75,88.75,0,0,1-5.26,10.3c-2.75,4.84-5.26,7.32-6.76,9.92-1.63,2.86-4.88,8.07-5.76,9.55s-3.63,3.73-4.13,5c-.37,1.61-4.38,5-6.76,7.94a86.87,86.87,0,0,1-6,7.56h.63c1.75,0,3.51.13,4.76.13,2.12,0,6.25.62,6.51,1.73a5.32,5.32,0,0,1,.12,1.49c0,1.24-.25,2.48-1,2.48s-2.13-1.36-3.38-1.73a34.53,34.53,0,0,0-8.39-1.12,13.8,13.8,0,0,0-1.87.12,67.82,67.82,0,0,1-5.64,6.08,38.63,38.63,0,0,1-9,6.45c-4.38,2.36-10.76,3-12.89,3-3.13,0-4-2.85-4-4.71,0-2.61,3.76-5,6.14-6.45,2.38-1.74,7.63-2.86,11.26-4a46.11,46.11,0,0,1,6.39-1.86,17.42,17.42,0,0,1,2.12-2.49c3.63-4.34,4.63-6.32,6.89-8.31a10.36,10.36,0,0,0,2.88-4c0-.37.12-.24.87-1.86.75-1.36,3-3.1,6-6.7,2.63-3.84,7.14-11.78,9.39-15.13,1.75-3.23,5.88-9.93,6.38-11.29.75-1.49,2-4.34,3.76-5.09,1.5-.86,4.13-7.44,6.88-12.28s2.63-5.58,5-8.93c2.13-3.1,2.63-4.34,4.38-6s3-5,4.25-6.95l-12.39.87c-8.38.49-9.26.87-13.14,1.73A59.25,59.25,0,0,1,108.09,134c-3.26.25-9,2.24-12.27,3.23s-7,3-10.76,4.34-4.64,3.35-6.76,3.85-2.38.87-4.26,2.48c-1.63,1.24-3.75,4.59-4.63,8.43-.88,3.6-1.75,5.46-2.13,8.81,0,3,1,6.7,1.5,9.43,1,3,0,2.85,2.13,5.21,1.88,2.73,2.76,4.22,3.76,4.84a13.91,13.91,0,0,0,6,1.61,22.15,22.15,0,0,0,11.9-5.46c4.75-4.34,6.5-8.31,8.13-10.91,1.13-2.73,2.63-5,3.88-7.57a33.4,33.4,0,0,0,2.13-6.2c.12-1.49,0-3.48.88-5a9,9,0,0,1,2.75-3.22c1.13-1.61,3.25-3.72,5.26-3.72,1.5,0,1.62.74,1.62,2v1.12c0,1.86-.87,6.08-2,7.32a2.31,2.31,0,0,0-.5,1.24,15,15,0,0,1-.38,2.11c-.75,3.1-1.75,3.1-3.25,5.33-1.25,2.11-7,11.54-9.51,13.28-2.38,2-3.13,3.34-4.38,4s-2.63,2.73-5.14,4.1a21,21,0,0,1-12.89,4.22c-3,0-6.76-2-8.76-3.1a3.56,3.56,0,0,0-.63-.38c-1.87-.87-6.5-6.32-6.75-7.56S61.15,174.9,60.9,173a31.42,31.42,0,0,0-.63-6.57c0-2.11,2.76-10.3,5.13-14,2.88-4.34,13.65-10.79,17.53-12.65,4.13-2,8.26-4.1,9.64-4.35,1.62,0,3.88-1,5.13-1.24s9.89-2.73,12.64-2.73c2.38,0,5,0,6-.49s5.63-1.37,8.76-1.62,13.14-1.11,18-1.11h2.63c1.88-1.86,5-4.59,7.14-5.58,2.75-1.49,2.87-1.49,5.88-3a20,20,0,0,1,8.76-2.23C168.42,117.47,168.67,117.71,168.67,118.09ZM83.43,222c-3.13.75-6.26,1.62-8.39,2.24-3.5.86-10.89,4.46-10.89,6.69a.93.93,0,0,0,.5.87,3.63,3.63,0,0,0,2.38.75,13.71,13.71,0,0,0,5.76-1.74c4.25-2.11,3.75-1.61,7.51-4.84A19.52,19.52,0,0,0,83.43,222Z"/><path class="cls-2" d="M179.67,188.55c-.25.62-.87.62-.87,1.36a3.19,3.19,0,0,1-1.13,2.11,5.61,5.61,0,0,0-1.12,3.35c0,1.12,1.5,1.49,2.62,1.49s2.63-1,3.63-1.24c1.13-.62,3.63-1.49,4.38-2s2.76-1.24,3.13-1.73a4.38,4.38,0,0,1,2.13-1.24c.75-.25,1.63-1.49,2.88-2.36s2.75-2.11,3.88-2.73a4.2,4.2,0,0,1,2.5-1.36c.13,0,.25.24.25.49a2,2,0,0,1-.5,1.12,10.79,10.79,0,0,0-2.75,2,24.63,24.63,0,0,1-3.88,3c-.5.62-2.38,1.49-3.63,2.23a65.66,65.66,0,0,1-5.88,3.6,12.73,12.73,0,0,0-2.26,1.12,3.37,3.37,0,0,0-2.12,1.24,10.1,10.1,0,0,1-2.76.87,21.71,21.71,0,0,1-5.5.62c-2.63,0-4.51-1.24-4.51-4s1.63-5.46,2.25-6.7c.88-1,1.38-2.61,2.76-3.72a24.71,24.71,0,0,0,2.62-3.23c1-1.36,3-2.73,5.14-4.46a23,23,0,0,1,5.5-4c.88-.38,1.76-2.24,2.76-2.24a15,15,0,0,0,3.5-2,13.21,13.21,0,0,1,6.76-2.23c2.25,0,3.88,1.11,3.88,1.86s-.12,1.86-.5,2.11c-.12.12,0,.12-.25.37s-2,2.11-3.38,3.22a20.71,20.71,0,0,1-4,2.48c-1.76,1-2.26,1.62-2.76,1.86-2.63,1.49-5.13,2.49-6,3.35a30.89,30.89,0,0,1-4,1.37A22.3,22.3,0,0,1,179.67,188.55Zm8.52-8.44c1.62-.74,2.5-1.49,3.13-1.73a8,8,0,0,1,1.87-1.49c1.13-.5,2.13-.75,2.76-1.74a12.65,12.65,0,0,1,2.62-2.36,2.09,2.09,0,0,0,.51-1.24c0-.25-.51-.49-.63-.49a6.54,6.54,0,0,0-2.5,1.24c-1.26.62-2.76,2-4.26,2.85a16.61,16.61,0,0,1-2.75,2.23c-1.38,1.24-4.51,4.35-5.39,5C185.18,181.73,186.68,180.73,188.19,180.11Z"/><path class="cls-2" d="M226.48,183.09c0,1.61-.5,1.36-1,2.73a10.43,10.43,0,0,1-2.12,3.35c-1,1.86-1.38,2.36-2.63,4.46s-1.13,2.73-1.13,3.35a4.68,4.68,0,0,0,2-1.11,37.67,37.67,0,0,1,3.76-2.24c.75-.62,2.63-1.24,3-1.73a6,6,0,0,1,2.13-1.24c.88-.25,1.75-1.49,3-2.36s2.76-2.11,3.63-2.73a4.44,4.44,0,0,1,2.76-1.36c.12,0,.25.24.25.49a2.06,2.06,0,0,1-.5,1.12c-.63.62-1.75.74-2.76,2a31.73,31.73,0,0,1-3.88,3,24,24,0,0,1-3.88,2.23,7.07,7.07,0,0,0-2,1.74,12.14,12.14,0,0,0-4.51,3c-1.62,1.36-4.25,1.74-5.13,3-.87,1-4,2.48-4.63,4.21-1,2-1.25,2.11-6.38,8.44-.75.87-1.38,2.11-2,3-.63,1.24-3.38,3.35-4.76,5.08-1.13,1.62-2.38,1.86-3.76,3.35a9.46,9.46,0,0,0-2.25,2.61c-.5.49-1.88,1-2.38,1.86a8.46,8.46,0,0,1-3.38,2.48c-2.25,1.12-6.76,3.84-9.13,3.84-2.63,0-3.88-.74-3.88-3.1,0-3.22,3.63-6.08,5.13-7.56a10,10,0,0,1,3-2.48c1.38-.87,2-1.62,2.63-2,.88-.5,1.13-1.61,2.25-2.23a2.43,2.43,0,0,0,1.76-2,11.37,11.37,0,0,1,3.5-2.48,12.34,12.34,0,0,0,3.5-2.36c1.63-1.11,7.39-4.83,8-5.7a18.16,18.16,0,0,0,3.25-3.48,19.85,19.85,0,0,0,2-3.47c.25-1.12,1.13-2.36,2.13-4.34s2.88-5.21,2.5-5.09l-3.13,2.61a10.83,10.83,0,0,1-3.5,1.86c-.63.49-1.75,1.86-2.63,1.86-.5,0-.37.62-2.13,1.74-1.25.86-4.5,2.85-6.13,2.85-1.88,0-4.38-.62-4.38-2.36,0-2,1.5-5.83,3.63-8.68a42.38,42.38,0,0,1,5.76-5.83c1.75-1.61,2-2,2.38-2.11s2-2.11,3.37-3.35a36.83,36.83,0,0,1,5.39-4.22,33.78,33.78,0,0,1,3.63-2.11c1.87-.87,3-1.24,4.25-1.73,2-.75,2.26-1.12,5.13-1.12a3.88,3.88,0,0,1,3.88,3.72,9.51,9.51,0,0,1-1.37,4.72,17.12,17.12,0,0,1-3,3.59A4.84,4.84,0,0,1,226.48,183.09Zm-27.91,28.78a25.15,25.15,0,0,0-4.13,3c-1.75,1.61-2.63,1.86-4.13,3.6a23.46,23.46,0,0,0-4,4c-1.51,1.73-2.63,1.86-4.76,4.21s-2.13,2.86-2.63,4.47a4,4,0,0,0-.25,1,.79.79,0,0,0,.88.87c.75,0,1.5-.62,2.12-.62,2.76-1.12,2.13-1.24,3.89-2.23,2.25-1.37,2.87-2.86,4-3.48.88-.62,2.25-3,3.13-3.59a24.81,24.81,0,0,0,2.5-4c.75-1.37,2.38-2.86,3.38-4.22s4.26-4.72,4.63-5.58C202.58,210.13,199.7,211,198.57,211.87Zm27.66-35.23c.51-1.24,1.26-2.23,1.26-3.35,0-.87,0-1.74-.75-2-1,0-2.13,1.12-3.63,1.49a23.4,23.4,0,0,0-5.14,2c-1.37,1.36-2.37,3.22-3.38,3.6-.62.12-1.25,1.61-2.5,2.1-1.38.75-3.63,3.73-6.26,6.7s-2.63,4.22-3.5,5.34c-.63.74-2.26,3.1-2.26,4a.54.54,0,0,0,.38.49,10.8,10.8,0,0,0,4.38-2.85c1.63-1.24,3.13-1.74,4.26-2.73,1.37-1.11,1.87-1.61,3.75-3a24.94,24.94,0,0,0,3.51-2.85,33.86,33.86,0,0,1,2.37-3c.76-1.11,1-1.86,2.26-2.48.5-.37.87-1.36,1.62-1.36a3.43,3.43,0,0,1,1.63.62C225.61,177.51,226,177.88,226.23,176.64Z"/><path class="cls-2" d="M243.88,188.55c-.25.62-.88.62-.88,1.36a3.18,3.18,0,0,1-1.12,2.11,5.6,5.6,0,0,0-1.13,3.35c0,1.12,1.5,1.49,2.63,1.49s2.63-1,3.63-1.24c1.13-.62,3.63-1.49,4.38-2s2.75-1.24,3.13-1.73a4.38,4.38,0,0,1,2.13-1.24c.75-.25,1.62-1.49,2.88-2.36s2.75-2.11,3.88-2.73a4.2,4.2,0,0,1,2.5-1.36c.13,0,.25.24.25.49a2,2,0,0,1-.5,1.12,10.46,10.46,0,0,0-2.75,2,25.59,25.59,0,0,1-3.88,3c-.5.62-2.38,1.49-3.63,2.23a65.86,65.86,0,0,1-5.89,3.6,12.67,12.67,0,0,0-2.25,1.12,3.36,3.36,0,0,0-2.13,1.24,10,10,0,0,1-2.75.87,21.86,21.86,0,0,1-5.51.62c-2.63,0-4.5-1.24-4.5-4s1.62-5.46,2.25-6.7c.87-1,1.38-2.61,2.75-3.72a24.73,24.73,0,0,0,2.63-3.23c1-1.36,3-2.73,5.13-4.46a23.06,23.06,0,0,1,5.51-4c.88-.38,1.75-2.24,2.75-2.24a14.87,14.87,0,0,0,3.51-2,13.21,13.21,0,0,1,6.76-2.23c2.25,0,3.88,1.11,3.88,1.86s-.13,1.86-.5,2.11c-.13.12,0,.12-.25.37s-2,2.11-3.38,3.22a20.76,20.76,0,0,1-4,2.48c-1.75,1-2.25,1.62-2.75,1.86-2.63,1.49-5.13,2.49-6,3.35a30.86,30.86,0,0,1-4,1.37A22.78,22.78,0,0,1,243.88,188.55Zm8.51-8.44c1.63-.74,2.51-1.49,3.13-1.73a7.85,7.85,0,0,1,1.88-1.49c1.13-.5,2.13-.75,2.75-1.74a12.73,12.73,0,0,1,2.63-2.36,2.15,2.15,0,0,0,.5-1.24c0-.25-.5-.49-.62-.49a6.63,6.63,0,0,0-2.51,1.24c-1.25.62-2.75,2-4.25,2.85a16.29,16.29,0,0,1-2.76,2.23c-1.37,1.24-4.5,4.35-5.38,5C249.39,181.73,250.89,180.73,252.39,180.11Z"/><path class="cls-2" d="M289.81,164a5.48,5.48,0,0,1-1,3.34,22,22,0,0,1-2.37,3.11c-1.26,1.11-1.51,1.86-2.88,2.73s-1.63,1.48-3,3c-1.88,1.24-1.88,1.74-3.75,3.48a15.84,15.84,0,0,0-3.88,4.34,18.13,18.13,0,0,0,4.25-2.11,47.69,47.69,0,0,1,4.88-3.47c4.39-2.24,6.76-3.73,8.27-4.35a28.39,28.39,0,0,1,4.38-2.35,5.36,5.36,0,0,1,2.75-1c.63-.12,1.88-1.11,2.63-1.11a3.23,3.23,0,0,1,3.25,2.85c0,.75-1.25,2.11-3,4-.13.13-.38.25-.5.5-1.88,2.11-3.13,4.46-4.26,5.58s-.62,2.48-1.75,3.72a6.32,6.32,0,0,0-2.13,3,6.87,6.87,0,0,0-1.12,4c0,1.49,1.25,2.23,2.75,2.23a13.12,13.12,0,0,0,5.76-1.74c.87-.49,2.75-1.24,3-1.73a4.75,4.75,0,0,1,2.38-1.24c.37-.25,1.63-1.49,2.75-2.36s2.76-2,3.51-2.6a5,5,0,0,1,2.75-1.49.68.68,0,0,1,.38.62,2,2,0,0,1-.38,1,13.55,13.55,0,0,0-2.88,2c-1,1.24-3,2.24-3.88,3-.62.62-2.5,1.49-3.38,2.23a5.18,5.18,0,0,0-2.5,1.74c-.38.62-3.13,2-5,3a6.41,6.41,0,0,1-2.5.49,12.06,12.06,0,0,1-2.38-.24,16.21,16.21,0,0,1-5.63-2.11,5.16,5.16,0,0,1-2-4,2.18,2.18,0,0,1,.12-.87c.25-1.86.5-3.85,1.75-5,1.26-1.37,1.26-2.36,1.88-2.86.5-.74.63-1.48,1.5-2.11.63-.86,2.88-3.1,2.88-4.21,0-.13-.25-.5-.5-.5-.75,0-1.88.62-3.88,1.61l-6,4.1c-1.62,1-3.88,2.23-6,3.72a50.24,50.24,0,0,0-6.25,4.22,71.93,71.93,0,0,0-5.89,5c-2.25,2.36-2.37,3.35-3.63,4.71-1.75,1.62-1.5,2.48-2.12,2.61-1,.25-2.26,1.24-3.63,1.24-1.63,0-3.38-.25-3.63-1,0-1.37,1.75-2.61,2.75-4a3,3,0,0,0,.5-1.12c0-.37.13-.5.63-.87a9,9,0,0,0,3-2.73c.5-1.36,4.88-6.08,6.13-7.69a64.89,64.89,0,0,1,6-5.46c1.38-1.11.75-2.23,2.51-3.35a12,12,0,0,0,3.5-3.59c.88-1.37,2.13-2.49,2.75-3.35.88-.62,2-2.48,3.13-3.73.63-1.11,2.26-2.1,3.51-3.22s3.25-3.1,4.25-3.1S289.81,162.37,289.81,164Z"/><path class="cls-2" d="M331.37,179.24c0-.74.62-.86,1.25-1.36.5-.25,1.88-.37,1.88-1.36,0-.13.12-.13.5-.25.87-.5.12-.5,1.62-1.49,1.26-.75,2.88-2.85,2.88-3.72s-.12-1.12-1-1.12a7.31,7.31,0,0,0-3.88,1.86c-.75.87-3,1.37-4,2.36s-2.26,1.74-3.38,3.22c-1.38,1.86-2.76,2.86-3,3.72-.25.25-1.37,2.24-1.62,2.24a8,8,0,0,0-1.88,1.36c0,.62-1.13,1.86-1.75,3-.88,1.12-3.26,4.09-3.26,5.95s.38,2.73,1.25,2.73a14.17,14.17,0,0,0,3.13-.37c.13,0,.25-.12.38-.12,1.37-.62,5.13-1.74,5.88-2.24s2.88-1.24,3.13-1.73a6,6,0,0,1,2.13-1.24c.87-.25,2.13-1.49,3.13-2.36s2.63-2.11,3.63-2.73a6,6,0,0,1,2.37-1.36c.51.12.76.24.76.49a1.72,1.72,0,0,1-.76,1.12c-.75.62-1.62.74-2.75,2-.88,1.24-3,2.24-3.63,3s-2.75,1.49-3.88,2.23-1.5.5-2.13,1c-.37.74-2.75,1.73-3.88,2.35s-2.75,1.24-3.5,1.62a16.23,16.23,0,0,1-6.89,1.24c-2.62,0-6.13-3.6-6.13-5.34,0-1.36.88-2.48,1.63-4.46s1.88-3.23,3.13-5.21a10,10,0,0,1,3.38-3.48c1-1,1-1.49,2.25-2.35,1-.75,2-1.86,4.88-4s3.26-2.11,4.26-2.11c.87-.25,1-1.49,2-2.11a33.68,33.68,0,0,1,5-1.74,9.28,9.28,0,0,1,4.25-.74c1.75,0,3.38,1.36,3.38,2.73,0,1.61-.75,1.73-1.63,2.6a7.18,7.18,0,0,0-1,1.74,6.71,6.71,0,0,1-2.12,2.11A13,13,0,0,1,335,179c-.5.62-1.63.62-2.76.62C331.87,179.62,331.37,179.62,331.37,179.24Z"/><path class="cls-2" d="M376.8,187.43c.25,0,.38.25.38.5a2.47,2.47,0,0,1-.63,1.11l-2.75,1.74c-.88.62-2.88,1.49-3.76,2.23a5.38,5.38,0,0,0-2.38,1.74c-.37.62-3.38,3-5.38,5.09-2.13,2.35-5,4.84-5.76,5.95a20.22,20.22,0,0,1-2.75,3.85c-1.13,1.36-1.75,2.6-3,3.35-.63.74-3.63,6.57-4.89,7.19-1.62.62-1.62,1.37-2.63,2.48s-1.62,2.73-2.37,3.6-1.63,2.11-3.13,3.85a28.48,28.48,0,0,1-4.13,4.71,35.54,35.54,0,0,1-3.88,3.47c-1.63,1.12-4.88,3.73-6.26,3.73s-3.13-.38-3.13-2.11c0-1.49,3.25-6,6.26-8.31s4.38-5.22,5.25-5.59,1.13-1.36,1.88-2.73a23.36,23.36,0,0,0,2.76-2.48c1.25-1,4.63-4.34,5.13-4.59.75-.37.62-1.36,1.62-2.73a21.31,21.31,0,0,1,3.76-3.1c.88-1.11,2.13-2.23,2.38-3.35s4-4.84,5.38-7.19c1.25-2.11,1.88-4.22,3.25-5.83,3.63-6.33,4.26-7.2,4.64-8.19.75-1.24,2-2.23,2.25-3.35a2.77,2.77,0,0,0,.25-.74.27.27,0,0,0-.25-.25,2.86,2.86,0,0,0-1.13.37c-1.75.74-2.38,1.86-4.25,3-1.63,1.24-2.26,2.23-4.13,3.35a20.9,20.9,0,0,0-4.26,2.85c-1.75,1.24-2.38,2.36-4.38,3.85A32.76,32.76,0,0,1,342,198.1a8.94,8.94,0,0,1-4.25,1c-1,0-4.13-1.36-4.13-2.73s1.87-5,2.25-5.58c.63-.74,2-2.48,2.75-3.6.38-1.48,1-2,1.88-3.47,1.13-1.86,2.88-2.11,3.88-3.85a22.42,22.42,0,0,1,2.88-4.09c1-1.12,3.38-3,3.76-3.47,1.12-1,2.12-1,3.38-1.49a1.53,1.53,0,0,1,.75-.13c.75,0,1,.5,1.75.62a.66.66,0,0,1,.75.75,3.07,3.07,0,0,1-1,1.86c-1.25,1-1.88,2.23-3.26,3.6-1,1.86-1.62,3.22-3.13,4.46a37.74,37.74,0,0,0-3.75,4.59c-1.88,2.11-5.38,5.83-5.38,7.07s.5,1.37,1.12,1.37,4-2.48,5.14-3.35c1.37-.87,3.38-2.85,4.38-3.23s1.5-1.24,2.37-2.23a11.52,11.52,0,0,0,3.76-2.36c1-1.61,2.13-2,3.5-3.1a25.2,25.2,0,0,0,5.26-4.34,28.4,28.4,0,0,0,3.51-3.84,5,5,0,0,1,2.5-2.36c.75-.37,1.75-2.23,2.38-2.23s2,1.61,2,2.72c0,1.37-1.63,4.47-2.38,5.71-.62,1-.62,1.86-2,3.85-1.13,2.23-.5,3.1-1.88,4.83-1.37,2.11-1.37,3.11-2.63,4.35-1,1.49-1.62,3.1-2.25,4.21.75-.62,2.75-1.24,3-1.73a7.38,7.38,0,0,1,2.13-1.24c.63-.25,2.26-1.62,3.51-2.36S375.92,187.43,376.8,187.43Z"/><path class="cls-2" d="M465,116.72c.88-.12,2.13-.49,1.63.62a8.42,8.42,0,0,1-2.51,3.6c-1.75,1.74-2.75,3.72-4.13,5a40.47,40.47,0,0,0-3.25,3.35,27.21,27.21,0,0,1-2,2.11l-.38,1.49a15.49,15.49,0,0,1-3.5,7.32,2.88,2.88,0,0,1-3.76.62c-1-.5-.75-2.61.13-4.47s1.87-2.48,3.25-4.09c.75-.87,1.75-2,2.88-3.1v-.62c-.13-.87-.38-4.1-1.25-5.34s-3.13-1.24-4.88-1.11-4.76,2-6.14,3-.75.25-2.63,2.11-1.5,2.48-2.5,3.72-3.13,3.23-3.5,9.68.5,8.68,1.25,9.18,2.25-.37,3.25,1.86.5,3.1-1.25,3.47-2.25-.12-3-1-.75-1.74-3.76-1.74c-1.88,0-5.38,1.87-7.51,4.1s-3.38,3.84-4.51,4.71-1.12,1.24-2,2.61-2.13,2.11-3.38,4.46-2.75,4.35-3.5,7.2a47.64,47.64,0,0,0-1.75,12.16c0,5.58,1,9.05,2.12,9.8s1.38.49,2.13,1.36,2.5,1.24,4.51,1.37,6.76-.13,9.89-2.24,4.5-3.35,5.38-3.84,1.13-1.37,2.13-2.36,5.75-5.83,7.88-7.82a28.78,28.78,0,0,0,3.13-3.59,15.16,15.16,0,0,1,2-3l2-3.23-1.63.87c-1.5.75-2.13.87-3.88,1.86s-5.13,2.36-6.39,3-3.25,1-4,.37-1-3.59-.12-5.08,2-4.47,3.12-5.59a20.67,20.67,0,0,0,2.88-3.22c.88-.87.75-.5,1.5-1.74s5.14-5.21,6.51-5.33,1.51-1.12,2.63-1.49a14.44,14.44,0,0,1,2.63-.75c.63-.24,1.13-1,2.38-1,1.88,0,3.38.37,3.38,4.34,0,1.86-1.13,4.84-2.63,7.82a13.9,13.9,0,0,1,1.88-1,29.1,29.1,0,0,1,4.38-1.37,32.81,32.81,0,0,1,4.88-1.61c1.75-.25,2.63,1.49,3.25,2.36s-1.62,2.35-2.37,2.6-3-.87-4.26-1a10.2,10.2,0,0,0-6.63,1.86,26.22,26.22,0,0,1-3.13,1.74,38.8,38.8,0,0,1-3,4.46c-3,3.72-3.5,4.47-4.38,5.71s-.62,1.24-1.63,2-1.12,1.12-2.37,2.61-3.26,3.6-5.13,6.08a20.79,20.79,0,0,1-6.14,5.21c-2.75,1.61-3.38,2.36-4.63,2.73s-7.26,2.73-9.51,2.73-7.51-.5-10-2.61-3.25-2-4-2.73S400.58,196,400,195s-2.5-3-2.5-9.43,1.63-8.81,2.75-10.67,2-3.72,2.63-4.46,1.5-2.61,2.63-4.1,3.38-3.84,4.88-5.33,2.5-3.23,4.63-4.47,2.76-2.11,4.63-3.1a53.24,53.24,0,0,1,8.64-3.84c-.12-.13-2.75-1.87-3-2.86s-1.38-1.73-1.51-3.72a12.12,12.12,0,0,1,1-6.82c1.5-3.23,2.37-3.23,2.5-4.22s1.38-2.48,2.75-3.72,4-3.6,5.63-4.22a22.07,22.07,0,0,0,3.51-1.74c1.38-.62,4-.62,4.63-1.11s4.26-1,6.64-1A3.63,3.63,0,0,1,454,122.3c.62,1.12,1.62,2,1.62,4.22v.37a26.76,26.76,0,0,0,3.76-5.08c1-1.37,1.88-3.6,2.25-4.1C462.41,116.6,464.29,116.85,465,116.72ZM449,171.3,450.4,169a28.31,28.31,0,0,0,2-6.58c.62-2.11.75-3.84-.25-4.09s-1,.25-1.75,1-2.26,1.37-3.63,2.36a23.32,23.32,0,0,0-3.13,3.6,16.39,16.39,0,0,0-3.38,4.59c-1.76,2.73-2,2.6-3.13,5s-.25,2.85.75,2.23,3.88-2.23,5.63-3,1.75-1.11,3.13-1.48A14.9,14.9,0,0,0,449,171.3Zm3.88-38.45a11.6,11.6,0,0,0-1.38,1.49c-1,1.36-2.75,3.22-2.38,3.84s.75.25,1.51-.37a14.79,14.79,0,0,0,1.87-3.23A9.35,9.35,0,0,0,452.9,132.85Z"/><path class="cls-2" d="M594.71,118.09a1.85,1.85,0,0,1-1.5,1.48,17.69,17.69,0,0,0-2.13-.37,4.29,4.29,0,0,0-1.88.5,25.2,25.2,0,0,0-5,4.46c-.87,1.12-2.12,2.49-3.25,4,3.25-.12,6.38-.12,8.26-.12a86.85,86.85,0,0,1,14.39,1.61l3.51,1.12s3.75,1.12,5.13,2.23,4.88,4.22,4.88,6.95c0,5.33-1,9.18-3.13,11.16s-4.38,4.72-5.5,5.21a25.81,25.81,0,0,0-3.76,2.73c-1.75,1.49-2.25,3.1-5.63,4.59a134.7,134.7,0,0,1-12.64,6.95c-4.26,1.86-8.51,2.85-11.27,4.71a74.2,74.2,0,0,1-8.26,3.73,40.92,40.92,0,0,0-7.51,3.1.46.46,0,0,1-.37.12c-.38.25-.88,2.85-.88,5.21a10,10,0,0,0,.37,2.86,30.27,30.27,0,0,0,1.63,7.93,7.08,7.08,0,0,0,3.63,4.47,8.9,8.9,0,0,0,3.51.62,10,10,0,0,0,3.38-.5c2.5-.86,6.25-3.22,8.13-4.21,2.38-1.49,4.63-2.61,6.76-4l3.88-2.86a10.24,10.24,0,0,1,2.5-1.48c.88-.25,2.26-1.49,3.76-2.36s2.88-2.11,4.13-3c1-.74,2.38-1.86,3-1.86a.4.4,0,0,1,.38.37c0,.25-.25.62-.75,1.12-.88.74-1.75,1.24-3,2.36s-3.88,2.35-4.63,3.22c-.62.62-2.75,1.86-3.88,2.73s-2.88,2.23-4.5,3.35c-1.63.87-4,2.48-5.76,3.47s-5,4.1-9,5.46c-3.26,1.37-7.51,3.1-10.89,3.1-3.88,0-7-1.61-8.26-3.72A16.05,16.05,0,0,1,550.4,199c0-.75-1.13-5.09-1.13-7.07a3.31,3.31,0,0,1,.13-1.12c0-1-.38-3-.38-4.71a6,6,0,0,1,.38-2.24c.5-1.61,3.75-2.85,5.88-3.35,1.75-.49,8.26-3,11.26-4,3.13-.5,8.27-4.35,9.77-4.35s2.5-1.73,4.13-2.6a64.87,64.87,0,0,0,8.51-5.09c2.5-2,7-5.08,8.39-6.57a37.53,37.53,0,0,1,5.63-6.58c.62-.12,3.5-5,4.13-5.7s1.13-4,1.13-5.83-1.26-4.47-1.26-5.34c0-.62-.75,0-3-1a32,32,0,0,0-6.38-2.11c-2.38-.37-11.27-1.24-17.9-1.49a15.61,15.61,0,0,0-2,3.6c-1.26,1.61-3,1.86-4,4.59-.5,2.85-2.75,4.84-4.51,8.31a70.58,70.58,0,0,0-3.5,6.95,43.9,43.9,0,0,0-4.51,6.32c-1.12,2.48-3.5,5.21-4.75,7.57a88.75,88.75,0,0,1-5.26,10.3c-2.75,4.84-5.26,7.32-6.76,9.92-1.63,2.86-4.88,8.07-5.76,9.55s-3.63,3.73-4.13,5c-.37,1.61-4.38,5-6.76,7.94a88.21,88.21,0,0,1-6,7.56h.62c1.75,0,3.51.13,4.76.13,2.13,0,6.26.62,6.51,1.73a5.32,5.32,0,0,1,.12,1.49c0,1.24-.25,2.48-1,2.48s-2.13-1.36-3.38-1.73a34.53,34.53,0,0,0-8.39-1.12,13.8,13.8,0,0,0-1.87.12,67.82,67.82,0,0,1-5.64,6.08,38.63,38.63,0,0,1-9,6.45c-4.38,2.36-10.76,3-12.89,3-3.13,0-4-2.85-4-4.71,0-2.61,3.76-5,6.14-6.45,2.38-1.74,7.63-2.86,11.26-4a46.11,46.11,0,0,1,6.39-1.86,17.42,17.42,0,0,1,2.12-2.49c3.63-4.34,4.64-6.32,6.89-8.31a10.36,10.36,0,0,0,2.88-4c0-.37.12-.24.87-1.86.75-1.36,3-3.1,6-6.7,2.63-3.84,7.14-11.78,9.39-15.13,1.75-3.23,5.88-9.93,6.38-11.29.75-1.49,2-4.34,3.76-5.09,1.5-.86,4.13-7.44,6.88-12.28s2.63-5.58,5-8.93c2.13-3.1,2.63-4.34,4.38-6s3-5,4.25-6.95l-12.39.87c-8.38.49-9.26.87-13.14,1.73A59.25,59.25,0,0,1,534.13,134c-3.26.25-9,2.24-12.27,3.23s-7,3-10.76,4.34-4.64,3.35-6.76,3.85-2.38.87-4.26,2.48c-1.63,1.24-3.75,4.59-4.63,8.43-.88,3.6-1.75,5.46-2.13,8.81,0,3,1,6.7,1.5,9.43,1,3,0,2.85,2.13,5.21,1.88,2.73,2.76,4.22,3.76,4.84a13.91,13.91,0,0,0,6,1.61,22.15,22.15,0,0,0,11.9-5.46c4.75-4.34,6.5-8.31,8.13-10.91,1.13-2.73,2.63-5,3.88-7.57a33.4,33.4,0,0,0,2.13-6.2c.13-1.49,0-3.48.88-5a9,9,0,0,1,2.75-3.22c1.13-1.61,3.25-3.72,5.26-3.72,1.5,0,1.62.74,1.62,2v1.12c0,1.86-.87,6.08-2,7.32a2.31,2.31,0,0,0-.5,1.24,13.59,13.59,0,0,1-.38,2.11c-.75,3.1-1.75,3.1-3.25,5.33-1.25,2.11-7,11.54-9.51,13.28-2.38,2-3.13,3.34-4.38,4s-2.63,2.73-5.13,4.1a21.07,21.07,0,0,1-12.9,4.22c-3,0-6.76-2-8.76-3.1a3.56,3.56,0,0,0-.62-.38c-1.88-.87-6.51-6.32-6.76-7.56s-1.88-2.86-2.13-4.72a31.42,31.42,0,0,0-.63-6.57c0-2.11,2.76-10.3,5.13-14,2.88-4.34,13.65-10.79,17.53-12.65,4.13-2,8.26-4.1,9.64-4.35,1.62,0,3.88-1,5.13-1.24s9.89-2.73,12.64-2.73c2.38,0,5,0,6-.49s5.63-1.37,8.76-1.62,13.14-1.11,18-1.11h2.63c1.88-1.86,5-4.59,7.14-5.58,2.75-1.49,2.88-1.49,5.88-3a20,20,0,0,1,8.76-2.23C594.46,117.47,594.71,117.71,594.71,118.09ZM509.47,222c-3.13.75-6.26,1.62-8.39,2.24-3.5.86-10.89,4.46-10.89,6.69a.93.93,0,0,0,.5.87,3.63,3.63,0,0,0,2.38.75,13.71,13.71,0,0,0,5.76-1.74c4.25-2.11,3.75-1.61,7.51-4.84A19.52,19.52,0,0,0,509.47,222Z"/><path class="cls-2" d="M605.71,188.55c-.25.62-.87.62-.87,1.36a3.19,3.19,0,0,1-1.13,2.11,5.61,5.61,0,0,0-1.12,3.35c0,1.12,1.5,1.49,2.62,1.49s2.63-1,3.63-1.24c1.13-.62,3.63-1.49,4.39-2s2.75-1.24,3.12-1.73a4.38,4.38,0,0,1,2.13-1.24c.75-.25,1.63-1.49,2.88-2.36s2.76-2.11,3.88-2.73a4.19,4.19,0,0,1,2.51-1.36c.12,0,.25.24.25.49a2,2,0,0,1-.51,1.12,10.79,10.79,0,0,0-2.75,2,24.63,24.63,0,0,1-3.88,3c-.5.62-2.38,1.49-3.63,2.23a65.66,65.66,0,0,1-5.88,3.6,12.73,12.73,0,0,0-2.26,1.12A3.37,3.37,0,0,0,607,199a10.1,10.1,0,0,1-2.76.87,21.71,21.71,0,0,1-5.5.62c-2.63,0-4.51-1.24-4.51-4s1.63-5.46,2.25-6.7c.88-1,1.38-2.61,2.76-3.72a24.71,24.71,0,0,0,2.62-3.23c1-1.36,3-2.73,5.14-4.46a23,23,0,0,1,5.5-4c.88-.38,1.76-2.24,2.76-2.24a15,15,0,0,0,3.5-2,13.21,13.21,0,0,1,6.76-2.23c2.26,0,3.88,1.11,3.88,1.86s-.12,1.86-.5,2.11c-.12.12,0,.12-.25.37s-2,2.11-3.38,3.22a20.71,20.71,0,0,1-4,2.48c-1.76,1-2.26,1.62-2.76,1.86-2.63,1.49-5.13,2.49-6,3.35a30.89,30.89,0,0,1-4,1.37A22.3,22.3,0,0,1,605.71,188.55Zm8.52-8.44c1.62-.74,2.5-1.49,3.13-1.73a8,8,0,0,1,1.87-1.49c1.13-.5,2.13-.75,2.76-1.74a12.47,12.47,0,0,1,2.63-2.36,2.15,2.15,0,0,0,.5-1.24c0-.25-.5-.49-.63-.49a6.54,6.54,0,0,0-2.5,1.24c-1.25.62-2.76,2-4.26,2.85a16.61,16.61,0,0,1-2.75,2.23c-1.38,1.24-4.51,4.35-5.38,5C611.22,181.73,612.72,180.73,614.23,180.11Z"/><path class="cls-2" d="M652,178.38a68.42,68.42,0,0,0,5-6.83,7.49,7.49,0,0,0,.75-3.1c0-1.12,1.38-1.86,2.13-2.23a4,4,0,0,1,1.75-.25c.63,0,1.26.12,1.26.62a9.44,9.44,0,0,1-.38,3.23c-.63.62-.75,1.48-1.38,2.73a31.88,31.88,0,0,1-3.25,4.09c-.5.62-1.75,1.36-3.13,3a27,27,0,0,1-6.13,4.83c-1.76,1.25-2.38,2.36-4.26,3.73s-2.5,1.36-4.13,2.85c-1.5,1.12-4,2.6-6.26,4-2.25,1.74-2.38,1.24-4.13,2.11a17.52,17.52,0,0,1-5.13,2,37.9,37.9,0,0,1-5.63.87c-.75,0-1.26-.12-1.26-.49,0-1.37,4.51-8.07,5.26-8.69.38-.74,1.88-2.48,2.63-3.6.25-1.48.88-2,2-3.47.75-1.86,1.51-2,2.63-3.72a29.38,29.38,0,0,1,3.13-4.59c.63-1,4-2.61,4.51-3.1,1-1,2.12-1,3.5-1.49a22.92,22.92,0,0,1,4.76-.37.56.56,0,0,1,.37.62c0,.62-.62,1.61-2.25,2.48a16.14,16.14,0,0,0-4.38,4.34,31.69,31.69,0,0,1-3.88,4.22,27,27,0,0,0-3.63,4.84c-1.88,2-4.51,5.45-4.51,6.69s.63,1.37,1.26,1.37a31.58,31.58,0,0,0,7-3.6c1.63-1.11,3.63-3.1,4.38-3.22a10.21,10.21,0,0,0,2.76-2.11c.75-1,2-1.37,3.63-2.61A67.37,67.37,0,0,0,652,178.38Z"/><path class="cls-2" d="M662.29,188.55c-.25.62-.88.62-.88,1.36a3.19,3.19,0,0,1-1.13,2.11,5.61,5.61,0,0,0-1.12,3.35c0,1.12,1.5,1.49,2.63,1.49s2.62-1,3.63-1.24c1.12-.62,3.62-1.49,4.38-2s2.75-1.24,3.12-1.73a4.38,4.38,0,0,1,2.13-1.24c.75-.25,1.63-1.49,2.88-2.36s2.76-2.11,3.88-2.73a4.19,4.19,0,0,1,2.51-1.36c.12,0,.25.24.25.49a2,2,0,0,1-.51,1.12,10.79,10.79,0,0,0-2.75,2,24.63,24.63,0,0,1-3.88,3c-.5.62-2.38,1.49-3.63,2.23a65.66,65.66,0,0,1-5.88,3.6,12.34,12.34,0,0,0-2.25,1.12,3.36,3.36,0,0,0-2.13,1.24,10,10,0,0,1-2.76.87,21.71,21.71,0,0,1-5.5.62c-2.63,0-4.51-1.24-4.51-4s1.63-5.46,2.25-6.7c.88-1,1.38-2.61,2.76-3.72a25.58,25.58,0,0,0,2.63-3.23c1-1.36,3-2.73,5.13-4.46a23,23,0,0,1,5.5-4c.88-.38,1.76-2.24,2.76-2.24a15,15,0,0,0,3.5-2,13.21,13.21,0,0,1,6.76-2.23c2.26,0,3.88,1.11,3.88,1.86s-.12,1.86-.5,2.11c-.12.12,0,.12-.25.37s-2,2.11-3.38,3.22a20.71,20.71,0,0,1-4,2.48c-1.76,1-2.26,1.62-2.76,1.86-2.63,1.49-5.13,2.49-6,3.35a30.89,30.89,0,0,1-4,1.37A22.78,22.78,0,0,1,662.29,188.55Zm8.51-8.44c1.62-.74,2.5-1.49,3.13-1.73a8,8,0,0,1,1.87-1.49c1.13-.5,2.13-.75,2.76-1.74a12.47,12.47,0,0,1,2.63-2.36,2.15,2.15,0,0,0,.5-1.24c0-.25-.5-.49-.63-.49a6.54,6.54,0,0,0-2.5,1.24c-1.25.62-2.76,2-4.26,2.85a16.61,16.61,0,0,1-2.75,2.23c-1.38,1.24-4.51,4.35-5.38,5C667.79,181.73,669.29,180.73,670.8,180.11Z"/><path class="cls-2" d="M691.7,198.72c-1.25,1.12-2.38,1.86-3.13,2.48s-2.63,1.61-2.75,1.61c-.63,0-1,1-2.13,1.87s-3.51,1.36-5.51,1.36a3.51,3.51,0,0,1-3.76-3.85,15,15,0,0,1,2.51-7.44c1.37-2.23,2-3.47,4.25-7.32,2.51-3.47,5.39-6.33,6-7.19s4.51-5.83,5.38-7.07,3-2.49,3.51-3.23,3.75-5.46,5.51-8.06a31.12,31.12,0,0,1,5.25-5.46c2.51-2.11,1.88-2,4.51-4.59s2.25-3.85,3.75-5.09,2-1.61,3.63-3.35,1-1.24,1.76-1.73c1.25-.25,2.63-1.49,5.63-3.85,2.63-2.6,5-4.34,6.26-4.34,1.5,0,1.5.37,1.5,1.61a5,5,0,0,1-1.25,3.1,15.29,15.29,0,0,1-3,4.1c-.62.86-2,.86-2,1.73-.12,1.12-1.38,2.24-2.63,3.6s-3.25,3.35-4.88,5c-1.38,1.86-4.25,3.35-5.26,4.72s-2.12,1.36-2.62,2.23a18.06,18.06,0,0,1-2.51,2.85c-1,.5-2.25,1-2.25,1.49-.25.62-3.26,3.85-6.76,7.82-1.13,1.36-5.51,6.94-6.51,8.56-.62,1.24-2,1.73-2.5,2.6a25,25,0,0,0-1.88,3.23c-.5,1.24-1.25,1.11-1.88,2.11-.25.86-2.12,2.23-2.75,4s-3.38,5.83-4,7.19a8.09,8.09,0,0,0-.5,2.23c0,.62.25,1,.88,1,1.13,0,2.38-1.12,3.63-1.86,1.38-.5,2.75-1.74,3.75-2.24,1.51-1,4.13-3.72,4.64-4.09.87-.75,3-2,3.38-2.48a2.76,2.76,0,0,1,1.75-1.24c.5-.25,1.5-1.49,2.75-2.36s2.75-2.11,3.88-2.73a4.77,4.77,0,0,1,2.38-1.36.53.53,0,0,1,.5.49,2.54,2.54,0,0,1-.63,1.12,8.61,8.61,0,0,0-2.62,2c-1.13,1.24-3,2.24-3.51,3-1.25.62-3,2.48-4.25,3.23C694.7,195.5,694.08,196.61,691.7,198.72Z"/><path class="cls-2" d="M722.74,196.24c-.75.37-1.13.74-1.63,1a4.86,4.86,0,0,1-2.25,1.74c-.75.12-1.63,1.36-3.63,2.23-1.5,1-2.26,1.37-5.13,1.37-1.88,0-3.51-2.86-3.51-4.47s1.5-3.22,2.38-4.71c1-1.86,4.25-5,4.76-5.71a6.6,6.6,0,0,1,1.5-2,40.41,40.41,0,0,1,3.5-3.6,7,7,0,0,1,2.88-1.86,11.21,11.21,0,0,1,2.13-2c1-.74,2.13-1.61,2.13-2.23a11.58,11.58,0,0,1-3.13-2.11c-.88-.62-.75-.74-1.88-.74-.88,0-1.63,1.24-2.5,2.23-.5.62-1.76,1.24-2.38,2a6.93,6.93,0,0,1-1.63,2c-.37.74-.88.74-1.25,1.24s-2.5,2.36-4.13,3.84a11.52,11.52,0,0,1-2.88,1.87,1.68,1.68,0,0,1-.63-.75c0-.5.38-1,2.38-2.23,1.88-1.74,2.13-2,2.38-2a2,2,0,0,0,1.13-1.11,8.32,8.32,0,0,1,1.5-1.37c1-1.36,3.25-3.22,4.88-5.58.13-.74,1.5-2.11,1.5-3.1a10.5,10.5,0,0,1-1-3.48,5.83,5.83,0,0,1,.13-.62c.12-1.24.87-3.59,1.75-4a22.31,22.31,0,0,1,1.88-2,10.77,10.77,0,0,1,2.75-1.36,4.49,4.49,0,0,1,3.13-1,2.13,2.13,0,0,1,2.25,2.36c0,1.24-.25,1-.62,1.74s-.38,1.61-1.51,3a24.2,24.2,0,0,0-1.5,2.61c-.62,1.24-.87.74-1.5,2,0,.25-.12.5-.12.75A3,3,0,0,0,726,172.3c1.25.74,1.25,1.49,2.38,1.86a2,2,0,0,1,1.25,2c0,1-1.75,2.86-2.63,3.6-1.12,1-1.37,1.74-2,2.23a8.23,8.23,0,0,0-1.63,2,3.27,3.27,0,0,1-1.62,1.36c-.76.62-2.26,2.86-2.76,3.35s-1.63,2.86-2.75,3.85a29.24,29.24,0,0,0-2,3.22,8.4,8.4,0,0,0-.5,2.24,1,1,0,0,0,1.12,1c.63,0,1.5-.87,2.76-1.24a15.74,15.74,0,0,0,2.75-1.86,24.94,24.94,0,0,1,2.63-2,11.52,11.52,0,0,0,2.88-2,5.17,5.17,0,0,1,2.5-1.24c.5-.25,1.25-1.49,2.75-2.36,1.13-.74,2.63-2.11,3.76-2.73a3.87,3.87,0,0,1,2.63-1.36c.12,0,.25.24.25.49a2.06,2.06,0,0,1-.5,1.12,10.64,10.64,0,0,0-2.76,2c-1,1.24-2.88,2.24-3.75,3s-2.38,1.49-3.76,2.23c-.62.38-1.87,1-2,1.74C724.87,194.88,723,196,722.74,196.24Z"/><path class="cls-2" d="M773.05,187.43c.25,0,.38.25.38.5a2.47,2.47,0,0,1-.63,1.11l-2.75,1.74c-.88.62-2.88,1.49-3.76,2.23a5.44,5.44,0,0,0-2.38,1.74c-.37.62-3.37,3-5.38,5.09-2.13,2.35-5,4.84-5.76,5.95a20.22,20.22,0,0,1-2.75,3.85c-1.13,1.36-1.75,2.6-3,3.35-.63.74-3.63,6.57-4.89,7.19-1.62.62-1.62,1.37-2.62,2.48s-1.63,2.73-2.38,3.6-1.63,2.11-3.13,3.85a28.48,28.48,0,0,1-4.13,4.71,34.63,34.63,0,0,1-3.88,3.47c-1.63,1.12-4.88,3.73-6.26,3.73s-3.13-.38-3.13-2.11c0-1.49,3.26-6,6.26-8.31s4.38-5.22,5.26-5.59,1.12-1.36,1.87-2.73a22.6,22.6,0,0,0,2.76-2.48c1.25-1,4.63-4.34,5.13-4.59.75-.37.62-1.36,1.63-2.73a20.92,20.92,0,0,1,3.75-3.1c.88-1.11,2.13-2.23,2.38-3.35s4-4.84,5.38-7.19c1.25-2.11,1.88-4.22,3.26-5.83,3.63-6.33,4.25-7.2,4.63-8.19.75-1.24,2-2.23,2.25-3.35a2.45,2.45,0,0,0,.25-.74.26.26,0,0,0-.25-.25,2.91,2.91,0,0,0-1.13.37c-1.75.74-2.37,1.86-4.25,3-1.63,1.24-2.25,2.23-4.13,3.35a20.9,20.9,0,0,0-4.26,2.85c-1.75,1.24-2.38,2.36-4.38,3.85a32.76,32.76,0,0,1-4.76,3.22,8.94,8.94,0,0,1-4.25,1c-1,0-4.13-1.36-4.13-2.73s1.88-5,2.25-5.58c.63-.74,2-2.48,2.76-3.6.37-1.48,1-2,1.87-3.47,1.13-1.86,2.88-2.11,3.88-3.85a22.92,22.92,0,0,1,2.88-4.09c1-1.12,3.38-3,3.76-3.47,1.12-1,2.12-1,3.38-1.49a1.53,1.53,0,0,1,.75-.13c.75,0,1,.5,1.75.62a.66.66,0,0,1,.75.75,3,3,0,0,1-1,1.86c-1.25,1-1.88,2.23-3.25,3.6-1,1.86-1.63,3.22-3.13,4.46a36.85,36.85,0,0,0-3.76,4.59c-1.88,2.11-5.38,5.83-5.38,7.07s.5,1.37,1.12,1.37,4-2.48,5.14-3.35c1.37-.87,3.38-2.85,4.38-3.23s1.5-1.24,2.38-2.23a11.59,11.59,0,0,0,3.75-2.36c1-1.61,2.13-2,3.51-3.1a25.4,25.4,0,0,0,5.25-4.34,28.4,28.4,0,0,0,3.51-3.84,5,5,0,0,1,2.5-2.36c.75-.37,1.75-2.23,2.38-2.23s2,1.61,2,2.72c0,1.37-1.63,4.47-2.38,5.71-.62,1-.62,1.86-2,3.85-1.13,2.23-.5,3.1-1.88,4.83-1.37,2.11-1.37,3.11-2.62,4.35-1,1.49-1.63,3.1-2.26,4.21.75-.62,2.76-1.24,3-1.73a7.2,7.2,0,0,1,2.12-1.24c.63-.25,2.26-1.62,3.51-2.36S772.18,187.43,773.05,187.43Z"/><path class="cls-2" d="M171.45,290c6.06,0,9.89,1.07,12.56,3.33a10.52,10.52,0,0,1,3.65,8.19,12.11,12.11,0,0,1-5.37,10.34c-3.27,2.19-7.44,3-12.73,3H159.5v-1.07c3.7-.31,3.87-.58,3.87-3.72V294.78c0-3.29-.52-3.45-3.87-3.75V290Zm-4.34,19.8c0,2.87,1.37,3.67,4.6,3.67,7.74,0,11.7-4.71,11.7-11.41,0-4.17-1.6-7.35-5-9.19a15,15,0,0,0-7.36-1.53,6.82,6.82,0,0,0-3.39.53c-.39.23-.56.65-.56,2.15Z"/><path class="cls-2" d="M207,289.42c7.35,0,13.93,5,13.93,12.64,0,8.23-6.28,13.36-14.19,13.36-8.26,0-14.28-5.59-14.28-12.79C192.43,295.78,197.89,289.42,207,289.42Zm-.86,1.42c-4.82,0-9.21,3.6-9.21,10.76S201.29,314,207.4,314c5.2,0,9.11-3.45,9.11-10.84C216.51,295.09,211.74,290.84,206.11,290.84Z"/><path class="cls-2" d="M263.77,291c-3,.38-3.44.69-4.6,3.83-1.42,3.83-4.86,13.56-7.23,20.41h-1.46c-2.24-6-5.12-13.37-7.35-19-2.5,6.58-5,13.13-7.27,19h-1.42c-2.15-6.59-4.6-13.75-6.92-20.45-1.12-3.1-1.59-3.52-4.39-3.79V290h10.62V291c-3.18.3-3.26.73-2.66,2.64,1.67,5.17,3.39,10.26,5.16,15.66,2.36-6.08,4.94-12.75,7.14-19h1.37c2.41,6.51,4.82,12.56,7.31,19.07,1.81-5.09,4.26-11.91,5.2-15.24.65-2.22.31-2.72-3.35-3.1V290h9.85Z"/><path class="cls-2" d="M295.41,291c-2.75.27-3.65.65-3.78,2.41-.05,1.23-.13,2.83-.13,6.4v15.35h-1.64l-18.4-20v9.58c0,3.45.13,5.17.22,6.28.08,2,1.16,2.53,4.25,2.76v1.07H265.48v-1.07c2.67-.19,3.7-.77,3.87-2.65a61.89,61.89,0,0,0,.22-6.43v-9.77a3.09,3.09,0,0,0-.86-2.52c-.82-1-1.72-1.19-3.83-1.38V290h6.45l18.23,19.26v-9.38a59.18,59.18,0,0,0-.21-6.36c-.13-1.72-1.12-2.26-4.56-2.45V290h10.62Z"/><path class="cls-2" d="M298.85,314.85v-1.07c3.53-.35,3.87-.5,3.87-3.76v-15.2c0-3.29-.34-3.45-3.87-3.79V290h11.52V291c-3.57.34-3.91.5-3.91,3.79V310c0,3.3.34,3.41,3.91,3.76v1.07Z"/><path class="cls-2" d="M344.43,291c-2.75.27-3.66.65-3.79,2.41,0,1.23-.13,2.83-.13,6.4v15.35h-1.63l-18.4-20v9.58c0,3.45.13,5.17.21,6.28.09,2,1.16,2.53,4.26,2.76v1.07H314.5v-1.07c2.67-.19,3.7-.77,3.87-2.65a63,63,0,0,0,.21-6.43v-9.77a3.06,3.06,0,0,0-.86-2.52c-.81-1-1.72-1.19-3.82-1.38V290h6.45l18.23,19.26v-9.38a58.14,58.14,0,0,0-.22-6.36c-.12-1.72-1.11-2.26-4.55-2.45V290h10.62Z"/><path class="cls-2" d="M375.81,304.39c-2.66.31-2.83.54-2.83,2.8v3.22a19.26,19.26,0,0,0,.25,3.64,49.09,49.09,0,0,1-9.76,1.37c-9.76,0-15.69-5.4-15.69-13.09,0-8.08,7.4-12.91,16-12.91a49.2,49.2,0,0,1,9,1c.08,1.41.3,3.75.64,6.16l-1.29.23c-1-3.25-2.28-4.63-5-5.44a16.53,16.53,0,0,0-4-.49c-6.58,0-10.84,4-10.84,11,0,6.09,3.53,12.14,11.87,12.14a9.54,9.54,0,0,0,3.65-.65,2.24,2.24,0,0,0,1.47-2.45v-3.15c0-2.79-.35-3.1-4.48-3.37v-1.11h11.05Z"/><path class="cls-2" d="M413.31,314.85v-1.07c3.52-.31,3.65-.54,3.61-4.64l0-15.62c-3.52,7-9.2,18-10.71,21.33h-1.11c-1.46-3.49-6.32-14-9.59-21-.73,13.4-.78,16.43-.78,17.16.05,2.14,1.12,2.45,4.05,2.72v1.07H388.63v-1.07c2.49-.23,3.52-.69,3.87-2.76.25-1.69.3-3.06,1.41-17,.18-2-.25-2.65-4-3V290h7.48l9.51,19.41L417.05,290h7.52V291c-3.69.38-4.17.73-4.08,3.41l.17,14.7c.17,4.1.3,4.29,4.08,4.64v1.07Z"/><path class="cls-2" d="M444.09,314.85v-1.07c2.8-.31,3.14-.69,2.54-2.15s-1.42-3.41-2.32-5.82H435c-.69,1.72-1.33,3.22-1.94,4.79-.94,2.49-.34,2.79,3.19,3.18v1.07h-9.94v-1.07c2.71-.31,3.4-.58,4.91-4l8.9-20.11,1.37-.23c2.71,6.55,5.68,13.79,8.39,20.41,1.37,3.34,1.76,3.64,4.81,3.95v1.07Zm-4.3-20.41c-1.37,3.29-2.84,6.77-4.13,9.8h8Z"/><path class="cls-2" d="M477.5,291c-3,.3-3.53.73-5.25,3.18-1.93,2.79-3.52,5.43-5.63,8.84a3.76,3.76,0,0,0-.64,2.26V310c0,3.18.38,3.41,4.38,3.76v1.07H458v-1.07c3.92-.46,4.22-.54,4.22-3.76v-4.94a3.7,3.7,0,0,0-.86-2.22c-1.51-2.49-3-4.9-5.29-8.5-1.68-2.6-2.11-3.06-5-3.33V290h10.57V291c-3.09.38-2.92.88-2.15,2.18,1.81,3,3.83,6.4,5.64,9.27,1.55-2.57,4-6.74,5.2-8.85,1-1.91.86-2.3-2.54-2.6V290h9.72Z"/><path class="cls-2" d="M502.22,301.37c4.13.61,7.49,2.37,7.49,6.09,0,2.6-1.64,4.67-4.18,5.9a15.65,15.65,0,0,1-7.44,1.49H487.52v-1.07c3.65-.31,3.87-.65,3.87-3.68V294.74c0-3.18-.39-3.44-3.87-3.71V290h11.26c3.23,0,5.25.49,6.62,1.34a4.86,4.86,0,0,1,2.54,4.29C507.94,299.19,504.63,300.83,502.22,301.37Zm-4.94-.46c4.73,0,6.66-1.69,6.66-4.83,0-2.68-1.85-4.75-6-4.75a4.91,4.91,0,0,0-2.41.39c-.35.23-.48.65-.48,1.87v7.32Zm-2.2,9.11c0,2.76.74,3.45,3.79,3.45,3.35,0,6.62-1.61,6.62-5.63s-3.1-5.59-8.34-5.59h-2.07Z"/><path class="cls-2" d="M529.27,314.85v-1.07c2.79-.31,3.14-.69,2.53-2.15s-1.41-3.41-2.32-5.82h-9.29c-.68,1.72-1.33,3.22-1.93,4.79-1,2.49-.34,2.79,3.18,3.18v1.07h-9.93v-1.07c2.71-.31,3.4-.58,4.9-4l8.9-20.11,1.38-.23c2.71,6.55,5.67,13.79,8.38,20.41,1.38,3.34,1.76,3.64,4.82,3.95v1.07ZM525,294.44c-1.38,3.29-2.84,6.77-4.13,9.8h8Z"/><path class="cls-2" d="M563.19,308.49c-.26,1.19-1.55,5.17-2,6.36h-20v-1.07c3.91-.35,4.26-.54,4.26-3.79V294.78c0-3.25-.43-3.45-3.87-3.75V290h11.52V291c-3.44.3-3.91.46-3.91,3.75v15.59c0,2.34.34,2.87,2.79,2.91l3.4,0c2.19,0,2.84-.23,3.83-1.19a13,13,0,0,0,2.62-3.94Z"/><path class="cls-2" d="M587.62,308.49c-.26,1.19-1.55,5.17-2,6.36h-20v-1.07c3.92-.35,4.26-.54,4.26-3.79V294.78c0-3.25-.43-3.45-3.87-3.75V290h11.52V291c-3.44.3-3.91.46-3.91,3.75v15.59c0,2.34.34,2.87,2.8,2.91l3.39,0c2.2,0,2.84-.23,3.83-1.19a12.86,12.86,0,0,0,2.62-3.94Z"/><path class="cls-2" d="M617.88,309.76c-.55,1.72-1.29,3.67-1.72,5.09H600v-.92c2.37-2.07,4.95-4.33,7-6.51,2.71-2.83,5.29-5.9,5.29-9.23s-1.89-5-5-5c-3,0-4.81,2.07-5.93,3.56l-1-.8,2.45-3.1a8.26,8.26,0,0,1,5.89-2.3c4.09,0,7.31,2.49,7.31,6.63,0,3.25-1.33,5.55-5.42,9.26-1.85,1.73-4.55,4.06-6.4,5.63h8.21c2.32,0,3-.19,4.43-2.6Z"/><path class="cls-2" d="M629.88,290.53c6.45,0,8.86,6.43,8.86,12.37,0,5.59-2.41,12.41-8.86,12.41s-9-6.32-9-12.37C620.89,297.35,623.34,290.53,629.88,290.53Zm0,1.34c-4,0-5,5.63-5,11s1.21,11.11,5,11.11,4.9-5.71,4.9-11.07S633.71,291.87,629.88,291.87Z"/><path class="cls-2" d="M659.59,309.76c-.56,1.72-1.29,3.67-1.72,5.09H641.66v-.92c2.36-2.07,4.94-4.33,7.05-6.51,2.71-2.83,5.29-5.9,5.29-9.23s-1.89-5-5-5c-3,0-4.82,2.07-5.93,3.56l-1-.8,2.45-3.1a8.24,8.24,0,0,1,5.89-2.3c4.08,0,7.31,2.49,7.31,6.63,0,3.25-1.33,5.55-5.42,9.26-1.85,1.73-4.56,4.06-6.41,5.63h8.22c2.32,0,3-.19,4.42-2.6Z"/><path class="cls-2" d="M663.46,295.13l2-2.42a8,8,0,0,1,5.55-2.18c3.91,0,6.49,2.18,6.49,5.09a4,4,0,0,1-1.33,2.84,18.23,18.23,0,0,1-3.06,2.07c4,.76,6.37,3.1,6.37,5.89,0,6.25-8.26,8.89-11.31,8.89a7.52,7.52,0,0,1-4.47-1.34,1.62,1.62,0,0,1-.65-1.26,2.22,2.22,0,0,1,1-1.46.88.88,0,0,1,1.12,0,8.37,8.37,0,0,0,5.33,2c3.1,0,5.29-2.07,5.29-5.79,0-3.52-2.92-4.9-5.68-4.9a12.19,12.19,0,0,0-2.88.42l-.3-1.15c3.83-1.11,6.92-2.64,6.92-5.47,0-2.26-1.63-3.56-4.12-3.56a7,7,0,0,0-5.38,3Z"/><g class="cls-3"><path class="cls-4" d="M415.12,257.56l-.33-.23c-.21-.15-.53-.38-1-.67a43.35,43.35,0,0,0-3.82-2.34,28.94,28.94,0,0,0-2.93-1.39c-.55-.22-1.13-.44-1.74-.64s-1.25-.37-1.93-.53-1.37-.28-2.1-.37a20.91,20.91,0,0,0-2.27-.16h-1.19l-.61,0-.61.05a25.2,25.2,0,0,0-2.51.35,18.69,18.69,0,0,0-2.56.69,14.49,14.49,0,0,0-2.48,1.13,13.05,13.05,0,0,0-1.16.78,11.75,11.75,0,0,0-1.06.93,8.47,8.47,0,0,0-1.64,2.33,8,8,0,0,0-.74,2.83c0,.12,0,.24,0,.37s0,.25,0,.37v.19a1.21,1.21,0,0,0,0,.19c0,.12,0,.25,0,.37a8.28,8.28,0,0,0,.31,1.48,8,8,0,0,0,.61,1.41,8.66,8.66,0,0,0,.91,1.27,9.37,9.37,0,0,0,1.15,1.12,12.91,12.91,0,0,0,1.34.95,14.82,14.82,0,0,0,3.08,1.4,15.49,15.49,0,0,0,3.39.71,17.67,17.67,0,0,0,3.56-.05,20.34,20.34,0,0,0,3.56-.75,35.25,35.25,0,0,0,6.86-3.1c2.25-1.26,4.47-2.67,6.8-4l1.73-1,1.71-1c1.14-.66,2.27-1.33,3.4-2a75.7,75.7,0,0,1,6.87-3.54c1.17-.51,2.34-1,3.54-1.38a25.82,25.82,0,0,1,3.63-.94,18.5,18.5,0,0,1,3.7-.32h.46l.46,0h.35l.11,0,.45.06.23,0,.23,0,.44.09a8.67,8.67,0,0,1,.88.21c.3.07.58.18.86.27l.22.07.21.09.41.17.41.2.4.2.38.23.19.12.09.06.09.06.36.26c.06.05.13.09.18.14l.17.14.33.29.31.32.15.16.14.16.28.34.25.36.12.18a1.74,1.74,0,0,1,.11.18l.22.38.18.38.09.19c0,.07.05.14.08.2l.15.4.12.4.06.2a1.77,1.77,0,0,1,0,.2l.09.41.06.41,0,.2c0,.07,0,.14,0,.21l0,.4v.41a2.67,2.67,0,0,1,0,.4c0,.13,0,.27,0,.4s0,.27,0,.4l0,.2,0,.1v.09c0,.13,0,.26-.08.39a10.24,10.24,0,0,1-2.82,5.32,16,16,0,0,1-2.22,1.78l-.59.38-.6.34c-.41.21-.81.42-1.22.59a15.7,15.7,0,0,1-2.48.83l-.61.13c-.21,0-.41.09-.62.12l-.61.09-.6.05c-.2,0-.4,0-.6,0l-.29,0h-1.16l-.29,0h-.42l-.14,0-.55-.06c-.18,0-.36-.05-.53-.07l-.53-.09a19.37,19.37,0,0,1-3.74-1.13,20.5,20.5,0,0,1-2.9-1.51,22.26,22.26,0,0,1-3.55-2.76c-.38-.34-.64-.63-.83-.82l-.27-.28.28.27c.19.18.47.46.86.79a22.74,22.74,0,0,0,3.61,2.64,20.81,20.81,0,0,0,2.91,1.41,18.78,18.78,0,0,0,3.7,1l.52.07a4.34,4.34,0,0,0,.52.07l.54,0h1.66l.29,0h.28l.58-.05.58-.08.59-.1a4.12,4.12,0,0,0,.59-.12,5.63,5.63,0,0,0,.59-.14,14.26,14.26,0,0,0,2.36-.86,14.67,14.67,0,0,0,4.37-3,5.45,5.45,0,0,0,.46-.5l.22-.27.2-.28.1-.14.1-.15.19-.29.17-.31a3,3,0,0,0,.16-.31,5.31,5.31,0,0,0,.3-.64c0-.11.09-.22.14-.33s.07-.23.11-.34l.06-.17.05-.17c0-.12.07-.23.1-.35s.05-.24.08-.35a2.29,2.29,0,0,0,.07-.36l.06-.36,0-.09v-.09l0-.18,0-.37v-.37a2.16,2.16,0,0,0,0-.36c0-.13,0-.25,0-.37l0-.37c0-.06,0-.13,0-.19l0-.18-.06-.37c0-.12-.05-.24-.08-.36s0-.13-.05-.19l-.05-.17c0-.12-.07-.24-.11-.36l-.14-.35-.08-.18-.08-.17-.17-.34-.19-.32L449,257l-.11-.15-.23-.31a3.47,3.47,0,0,0-.25-.29l-.12-.15-.14-.14-.27-.27-.3-.25-.15-.13-.16-.12L447,255l-.08,0-.09-.05-.17-.11-.35-.2-.36-.18-.37-.17-.38-.15L445,254l-.19-.06c-.26-.08-.52-.18-.79-.24s-.54-.14-.82-.18l-.42-.08a1.52,1.52,0,0,0-.21,0l-.21,0-.42-.05h-.42l-.43,0h-.42a17.24,17.24,0,0,0-3.48.34,25.82,25.82,0,0,0-3.47.93c-1.15.39-2.29.86-3.42,1.37-2.27,1-4.5,2.23-6.75,3.51l-3.38,2-1.72,1-1.73,1c-2.3,1.32-4.52,2.73-6.81,4a35.91,35.91,0,0,1-7.12,3.17,21.48,21.48,0,0,1-3.78.77,19.31,19.31,0,0,1-3.8,0,15.67,15.67,0,0,1-3.63-.8,15.45,15.45,0,0,1-3.29-1.54,13.6,13.6,0,0,1-1.44-1.05,9.92,9.92,0,0,1-1.26-1.25,9.05,9.05,0,0,1-1-1.45,8.51,8.51,0,0,1-.67-1.59,9.54,9.54,0,0,1-.32-1.66c0-.14,0-.28,0-.42s0-.14,0-.21v-.2c0-.14,0-.28,0-.42s0-.27,0-.41a8.84,8.84,0,0,1,.87-3.1,9.33,9.33,0,0,1,1.85-2.52,9.86,9.86,0,0,1,1.16-1,12.7,12.7,0,0,1,1.25-.81,15.5,15.5,0,0,1,2.63-1.14,18.73,18.73,0,0,1,2.66-.65c.88-.15,1.74-.25,2.58-.31l.63,0,.62,0h.62l.6,0a21.44,21.44,0,0,1,2.32.23c.74.11,1.46.26,2.14.43s1.33.38,1.94.59,1.2.45,1.74.69a29.24,29.24,0,0,1,2.92,1.48,44.22,44.22,0,0,1,3.76,2.47l.93.7.32.24Z"/><path class="cls-4" d="M402.23,265.56l.3,0,.36-.06.48-.08a19.67,19.67,0,0,0,3-.85,30.41,30.41,0,0,0,4.16-1.94c1.52-.83,3.14-1.84,4.87-2.88.86-.53,1.72-1,2.56-1.5.42-.23.83-.46,1.25-.67s.8-.41,1.18-.62c1.53-.81,2.91-1.6,4.1-2.2l.44-.22.41-.2.77-.37,1.25-.54,1.09-.4-1,.57-1.15.7-.7.46-.39.25-.4.27-1.8,1.21-1,.66-1.09.7-1.17.69-1.19.71-2.51,1.53a57.09,57.09,0,0,1-5,2.76,24.64,24.64,0,0,1-4.45,1.61,16.13,16.13,0,0,1-3.16.45l-.5,0h-.67Z"/><path class="cls-4" d="M405.29,269.77l.3,0,.36-.05.48-.09a19.67,19.67,0,0,0,3-.85,29.62,29.62,0,0,0,4.16-1.93c1.52-.84,3.14-1.84,4.87-2.89.86-.52,1.72-1,2.56-1.49.42-.24.83-.46,1.25-.67l1.18-.62c1.53-.82,2.91-1.6,4.1-2.2l.44-.23.41-.2.77-.37,1.25-.53,1.09-.41-1,.58c-.32.18-.7.43-1.15.7l-.71.46-.38.25-.4.27-1.8,1.2-1,.67L424,262l-1.17.7-1.19.7-2.51,1.53a53.54,53.54,0,0,1-5,2.76,23,23,0,0,1-4.46,1.61,16.11,16.11,0,0,1-3.15.46h-1.17Z"/><path class="cls-4" d="M292.74,260.31s-.63,2.28-5.1,0c0,0,4.17-2.35,5.1,0Zm-6.52,0a.38.38,0,0,1,.75,0,.38.38,0,0,1-.75,0Zm-2.24.05s1.43,7.59,11.18-.05c0,0-9.19-7.71-11.18.05Z"/><path class="cls-4" d="M295.88,259.28a1,1,0,0,1,1,1h0a1,1,0,0,1-1,1h0a1,1,0,0,1-1-1h0a1,1,0,0,1,1-1Z"/><path class="cls-4" d="M303.77,259.25a1,1,0,0,1,1,1h0a1,1,0,0,1-1,1h0a1,1,0,0,1-1-1h0a1,1,0,0,1,1-1Z"/><path class="cls-4" d="M299.83,257.6s-3.51,2.67-3.48,2.68,3.5,2.65,3.5,2.65c.41-.87,3.5-2.67,3.5-2.67s-3.1-1.79-3.52-2.66Z"/><path class="cls-4" d="M396.36,260.3c-2.92,1.48-3.33,0-3.33,0,.61-1.52,3.33,0,3.33,0Zm.67.24a.25.25,0,0,1-.24-.24.25.25,0,1,1,.24.24Zm-5.57-.24c6.35,5,7.28,0,7.28,0-1.3-5-7.28,0-7.28,0Z"/><path class="cls-4" d="M391,259.62a.66.66,0,0,0-.67.65h0a.67.67,0,0,0,.66.66h0a.67.67,0,0,0,.68-.65h0a.67.67,0,0,0-.67-.66Z"/><polygon class="cls-4" points="303.77 259.9 390.32 259.9 390.32 260.61 303.77 260.61 303.77 259.9 303.77 259.9"/><path class="cls-4" d="M546.78,260.33c-4.47,2.26-5.1,0-5.1,0,.93-2.33,5.1,0,5.1,0Zm1.05.36a.38.38,0,0,1-.37-.37.37.37,0,0,1,.37-.36.36.36,0,0,1,.37.36.38.38,0,0,1-.37.37Zm-8.56-.37c9.74,7.64,11.17.05,11.17.05-2-7.76-11.17-.05-11.17-.05Z"/><path class="cls-4" d="M538.55,259.28a1,1,0,0,0-1,1h0a1,1,0,0,0,1,1h0a1,1,0,0,0,1-1h0a1,1,0,0,0-1-1Z"/><path class="cls-4" d="M530.66,259.25a1,1,0,0,0-1,1h0a1,1,0,0,0,1,1h0a1,1,0,0,0,1-1h0a1,1,0,0,0-1-1Z"/><path class="cls-4" d="M534.6,257.6s3.51,2.67,3.48,2.68-3.51,2.65-3.51,2.65c-.4-.87-3.5-2.67-3.49-2.67s3.1-1.79,3.52-2.66Z"/><path class="cls-4" d="M441.39,260.29s-.41,1.49-3.32,0c0,0,2.72-1.53,3.32,0Zm-4.24,0a.24.24,0,0,1,.48,0,.25.25,0,0,1-.24.24.24.24,0,0,1-.24-.24Zm-1.46,0s.93,4.94,7.28,0c0,0-6-5-7.28,0Z"/><path class="cls-4" d="M443.43,259.62a.67.67,0,0,1,.68.65h0a.67.67,0,0,1-.67.66h0a.66.66,0,0,1-.67-.65h0a.67.67,0,0,1,.66-.66Z"/><polygon class="cls-4" points="530.65 259.9 444.11 259.9 444.11 260.61 530.65 260.61 530.65 259.9 530.65 259.9"/></g><g class="cls-3"><path class="cls-4" d="M417.88,72.91c-4.92-6,0-6.9,0-6.9,5,1.24,0,6.9,0,6.9Zm-.76,1.41c0-.27.35-.5.78-.5s.79.23.79.5-.35.51-.79.51-.78-.23-.78-.51Zm.71-11.58c-16.37,13.23,0,15.12,0,15.12,16.7-2.73,0-15.12,0-15.12Z"/><path class="cls-4" d="M420.07,61.75c0-.76-1-1.39-2.17-1.39h0c-1.19,0-2.16.63-2.16,1.39h0c0,.77,1,1.39,2.16,1.39h0c1.2,0,2.17-.62,2.17-1.39Z"/><path class="cls-4" d="M423.64,56.4s-5.71,4.77-5.74,4.73-5.74-4.73-5.74-4.73c1.88-.56,5.74-4.76,5.74-4.75s3.87,4.19,5.74,4.75Z"/><path class="cls-4" d="M345.59,39.73l1.86,0c1.2,0,2.94,0,5.08,0,4.28,0,10.17-.33,16.62-.38,1.61,0,3.19,0,4.71,0s2.95.07,4.34.17c2.76.19,5.25.46,7.32.75,1,.14,2,.29,2.79.42s1.51.27,2.08.39l1.76.38-1.65-.56c-.54-.17-1.22-.35-2-.57s-1.71-.42-2.73-.64a73.17,73.17,0,0,0-7.36-1.18c-1.41-.15-2.94-.27-4.49-.31s-3.15-.09-4.8-.06c-6.58.07-12.44.64-16.67,1l-6.86.6Z"/><path class="cls-4" d="M294,18.57a11,11,0,0,1,2.38-2.08,15.43,15.43,0,0,1,2.76-1.43,21.39,21.39,0,0,1,2.9-1l.75-.17.38-.09.4-.07.79-.13.39-.05.4,0a24,24,0,0,1,3.16-.14c1,0,2,.09,3,.21a32.81,32.81,0,0,1,5.6,1.17c.87.26,1.71.55,2.51.87.4.16.78.33,1.17.5.19.08.37.18.56.27s.37.17.54.27l.53.28.51.3.26.15.24.15.48.31.45.32.22.16.21.17.42.34.39.34.37.36.35.36c.2.25.43.48.6.74a7.62,7.62,0,0,1,.9,1.54c0,.14.09.27.14.4l.07.2,0,.19c0,.14.07.27.1.4s0,.27,0,.4l0,.2v.19c0,.13,0,.26,0,.39s0,.26-.05.39l0,.19a1.8,1.8,0,0,0-.05.19l-.11.38-.15.36-.07.18-.1.18-.19.34-.23.34-.12.16-.14.16-.26.31-.3.29-.15.15-.17.13-.32.27-.35.25-.18.13-.18.11-.37.23-.39.2c-.26.14-.53.26-.8.38a13.35,13.35,0,0,1-3.34.9,13.92,13.92,0,0,1-3.14.07,11.72,11.72,0,0,1-2.5-.47l-.26-.08-.24-.08-.47-.17c-.28-.13-.55-.24-.78-.36l-.62-.34-.19-.12c-1.55-.47-2.4-1.59-1.94-2.69s2.49-1.95,4.4-1.61,3,1.6,2.52,2.82a3.6,3.6,0,0,1-3.18,1.69l.24.07.45.12.23.06.24.05a12,12,0,0,0,2.23.28,12.82,12.82,0,0,0,2.64-.2,10.58,10.58,0,0,0,2.71-.87,6.25,6.25,0,0,0,.63-.33l.31-.18.29-.2.15-.1.13-.1.28-.22.24-.23.13-.11.11-.12.23-.25.2-.26.1-.13s.05-.09.08-.14.12-.18.17-.27.09-.19.14-.28l.07-.15,0-.14c0-.1.07-.2.1-.3l.06-.3a1.24,1.24,0,0,0,0-.16v-.15l0-.31c0-.11,0-.21,0-.32v-.16l0-.16c0-.11,0-.21,0-.32l-.09-.32-.05-.16-.07-.17c0-.1-.09-.21-.13-.32A11.24,11.24,0,0,0,320.14,18l-.49-.23-.5-.23c-.35-.15-.69-.3-1-.43-.72-.28-1.48-.53-2.26-.76a29.67,29.67,0,0,0-5-1c-.87-.1-1.76-.15-2.64-.17a19.3,19.3,0,0,0-2.64.12l-.33,0-.32,0-.63.1-.32.06-.31.07-.64.15a18.2,18.2,0,0,0-2.43.8,12.86,12.86,0,0,0-2.27,1.17,8.54,8.54,0,0,0-1.95,1.69,7.08,7.08,0,0,0-1.29,2.2,6.32,6.32,0,0,0-.18.62c-.05.21-.08.43-.12.64a7.46,7.46,0,0,0,0,1.34,7.73,7.73,0,0,0,.25,1.38,8.38,8.38,0,0,0,.54,1.4,10.19,10.19,0,0,0,.83,1.39c.18.22.34.46.54.68l.29.33.31.33c.11.12.22.22.34.33s.22.22.34.32L299,31l.4.33.41.32.41.32c.14.11.28.22.43.32l.88.62c.3.21.62.4.94.6s.64.39,1,.58l.5.28c.17.1.35.18.53.27l.53.27c.18.09.35.18.54.26l1.13.5,1.17.46.61.22.61.21c1.65.56,3.4,1,5.22,1.48l1.37.32.7.15.7.15,1.41.29,1.43.27,1.43.26,1.45.26,1.45.23.72.12.73.1,1.47.19,1.48.16c1,.11,2,.18,3,.27l1.5.1,1.51.09c1,0,2,.1,3,.12,2,.07,4,.08,6.05.09s4,0,6-.05l5.93-.11,5.82-.1c3.81-.06,7.53-.15,11.11-.12,1.79,0,3.54.06,5.24.13s3.36.22,5,.39a50.24,50.24,0,0,1,8.62,1.69,24,24,0,0,1,3.44,1.3,8.42,8.42,0,0,1,2.46,1.68,3.18,3.18,0,0,1,.65,1,2.3,2.3,0,0,1,.15,1l0,.24a1.8,1.8,0,0,1-.06.22,2.26,2.26,0,0,1-.17.43,2.8,2.8,0,0,1-.55.73,4.13,4.13,0,0,1-1.51,1,3.89,3.89,0,0,1-1.51.23,3,3,0,0,1-.91-.18,1.37,1.37,0,0,1-.2-.09l-.06,0a2.35,2.35,0,0,1,.29.08,3.3,3.3,0,0,0,.89.13,3.38,3.38,0,0,0,1.39-.27,3.76,3.76,0,0,0,1.36-.93,2.81,2.81,0,0,0,.48-.7,1.87,1.87,0,0,0,.13-.4,1.55,1.55,0,0,0,0-.21l0-.22a2.07,2.07,0,0,0-.19-.89,2.94,2.94,0,0,0-.63-.88,8.42,8.42,0,0,0-2.4-1.54,24,24,0,0,0-3.37-1.2A49.64,49.64,0,0,0,382.57,42c-1.56-.14-3.19-.25-4.87-.31s-3.4-.08-5.17-.06c-3.54,0-7.24.16-11.07.28l-5.8.16-5.93.19q-3,.09-6.06.12c-2,0-4.08,0-6.13,0-1,0-2.06,0-3.08-.09-.52,0-1,0-1.55-.07s-1-.05-1.54-.09c-1-.07-2.06-.13-3.08-.24-.51-.05-1-.09-1.53-.15l-1.52-.18-.76-.1-.76-.11-1.5-.22-1.48-.25-1.46-.25-1.47-.27L316.36,40l-.72-.14-.72-.15-1.43-.31c-1.9-.43-3.75-.93-5.53-1.51l-.66-.22-.65-.23L305.37,37l-1.23-.53a6.54,6.54,0,0,1-.6-.28l-.58-.28-.58-.29-.55-.3c-.37-.2-.74-.4-1.08-.62s-.7-.42-1-.64l-1-.66c-.16-.1-.31-.22-.46-.33l-.45-.34-.45-.34L297,32l-.82-.68-.41-.37c-.13-.12-.26-.24-.38-.37l-.37-.37-.33-.38c-.23-.25-.42-.51-.63-.77a12.78,12.78,0,0,1-1-1.58,10.75,10.75,0,0,1-.65-1.6,9.18,9.18,0,0,1-.3-1.6A7.65,7.65,0,0,1,294,18.57Z"/><path class="cls-4" d="M368.66,32.07a1.16,1.16,0,0,0-.65.18,1.19,1.19,0,0,0-.47.58,1.86,1.86,0,0,0,.62,2A6.29,6.29,0,0,0,370,36a16,16,0,0,0,2.81.93c.95.23,1.85.38,2.52.48a3.11,3.11,0,0,0,1.16.07c.05,0-.26-.26-.76-.56l-1.91-1.08A15.54,15.54,0,0,1,372,34.55a7.75,7.75,0,0,1-1-.93c-.38-.38-.75-.69-1.1-1a2.12,2.12,0,0,0-1.22-.56Z"/><path class="cls-4" d="M378.16,32.61a1.3,1.3,0,0,0-1.16.45,1.46,1.46,0,0,0-.17,1.66,3.6,3.6,0,0,0,1.08,1.2,10.21,10.21,0,0,0,1.94,1.14,10.38,10.38,0,0,0,2.76,1c.13-.08-.72-.85-1.58-1.7A8.87,8.87,0,0,1,380,35.07a4.36,4.36,0,0,1-.47-.88,9.39,9.39,0,0,0-.54-1,1.3,1.3,0,0,0-.79-.62Z"/><path class="cls-4" d="M356.47,31.35a1.12,1.12,0,0,0-.68.23,1.24,1.24,0,0,0-.28.28.87.87,0,0,0-.17.38,2.15,2.15,0,0,0,.92,2.12,7.59,7.59,0,0,0,2.18,1.2,18.84,18.84,0,0,0,3.22.87c1.08.21,2.09.34,2.84.41a3.61,3.61,0,0,0,1.29,0c0-.06-.32-.28-.92-.58l-2.23-1.09a20.34,20.34,0,0,1-2.21-1.28,9.43,9.43,0,0,1-1.21-1c-.46-.4-.9-.73-1.32-1a2.49,2.49,0,0,0-1.43-.55Z"/><path class="cls-4" d="M428.61,31.45A11.14,11.14,0,0,0,426.47,28,16,16,0,0,0,425,26.54l-.83-.68c-.27-.23-.58-.44-.88-.65a23.53,23.53,0,0,0-3.86-2.2l-1-.45-1.07-.41-.53-.19-.55-.18-1.09-.33L414,21.17l-.55-.13-.56-.11-1.11-.21-1.13-.15-.55-.07-.56,0-1.11-.08-1.08,0h-1.07a34.7,34.7,0,0,0-4,.3,25.71,25.71,0,0,0-3.64.75,12.39,12.39,0,0,0-3,1.3,5.09,5.09,0,0,0-1.82,1.78l-.25.48c-.06.16-.11.32-.15.47a5.08,5.08,0,0,0-.15.91,3.77,3.77,0,0,0,1.17,3,4.1,4.1,0,0,0,1.48.84,6.13,6.13,0,0,0,1.57.26,9.09,9.09,0,0,0,1.25-.07,4,4,0,0,0,1.24.2c1.46,0,2.65-.76,2.65-1.7s-1.19-1.7-2.65-1.7-2.64.76-2.64,1.7a1.68,1.68,0,0,0,1.2,1.42,7.16,7.16,0,0,1-1,0,5,5,0,0,1-1.42-.3,3.41,3.41,0,0,1-1.22-.82,3.27,3.27,0,0,1-.74-2.81,4.23,4.23,0,0,1,2.37-3.08,11.88,11.88,0,0,1,2.71-1,23.46,23.46,0,0,1,3.35-.54,32.65,32.65,0,0,1,3.74-.13l1,0,1,.07,1,.11.49.05.49.08,1,.17,1,.23.49.11.47.14,1,.28.94.33.47.17.45.2c.31.12.61.26.92.39l.88.43A20.16,20.16,0,0,1,421,26.48a8.38,8.38,0,0,1,.72.59l.68.62A13.37,13.37,0,0,1,423.59,29,9,9,0,0,1,425.18,32a6.34,6.34,0,0,1,.24,3.14c-.36,2.11-2,4.14-4.44,5.85a37.66,37.66,0,0,1-9.2,4.38q-2.65.9-5.55,1.64c-.47.13-1,.25-1.45.36l-1.46.33-1.48.32-1.51.27a98.57,98.57,0,0,1-12.72,1.33,182.73,182.73,0,0,1-27.48-1.26c-2.36-.26-4.69-.55-7-.85l-7-.88-6.9-.87-6.81-.82c-9-1-17.81-1.91-26.25-2.43l-3.14-.2-3.11-.13c-2.07-.08-4.1-.19-6.1-.23-4-.1-7.91-.13-11.68-.08a202.17,202.17,0,0,0-20.91,1.27,105.58,105.58,0,0,0-16.63,3.2,61.49,61.49,0,0,0-6.3,2.14c-.94.36-1.77.77-2.6,1.13-.4.19-.78.39-1.15.58s-.74.36-1.07.56a33.07,33.07,0,0,0-3.41,2.13c-.45.34-.88.64-1.24.93l-.95.8c-.29.24-.52.46-.71.65l-.49.49-.39.38.44-.36.55-.46c.22-.17.46-.38.78-.6l1-.75c.39-.27.85-.55,1.33-.85A36.28,36.28,0,0,1,234,51.13c.34-.18.73-.33,1.11-.5l1.18-.51c.84-.31,1.69-.68,2.65-1a64.2,64.2,0,0,1,6.31-1.82,110.63,110.63,0,0,1,16.4-2.48l2.31-.18a79.77,79.77,0,0,1,11.46,1c3.27.52,6.79,1.26,10.49,2.19s7.6,2.06,11.67,3.3,8.34,2.62,12.91,4c1.14.32,2.34.63,3.52.95l1.8.48.9.23.93.21,3.75.83.94.21c.32.07.64.12,1,.18l1.95.34,1.94.35,1,.17,1,.13,3.89.53,1,.13,1,.09,1.93.18,1.91.17.95.09,1,0,3.77.19.93,0h.93l1.84,0,1.82,0c.61,0,1.21,0,1.81,0l3.53-.1c.58,0,1.16,0,1.74-.07l1.7-.12,3.33-.23c1.09-.1,2.16-.23,3.21-.33l1.57-.18c.51,0,1-.1,1.53-.18,1-.15,2-.3,3-.43s1.92-.27,2.83-.45l2.7-.5,1.3-.24.64-.12.62-.14,4.69-1,4.1-1.06c1.29-.32,2.44-.69,3.51-1l2.92-.87c3.45-1.14,5.32-1.79,5.32-1.79l-5.64,1.27-3.05.63c-1.12.22-2.32.49-3.64.7l-4.19.75-4.74.71a173.28,173.28,0,0,1-23.57,1.71l-3.37,0c-.57,0-1.14,0-1.71,0l-1.73-.07-1.74-.07-.88,0-.88-.06-3.56-.26-.9-.07-.9-.1-1.8-.19-1.82-.19-.91-.1-.91-.13-3.67-.52-.92-.14-.92-.16-1.84-.33-1.84-.32c-.31-.06-.62-.1-.92-.17l-.9-.19-3.57-.76-.89-.19-.86-.22L316,52.88,312.59,52c-4.51-1.22-8.88-2.47-13.13-3.58s-8.37-2.1-12.32-2.86c-3-.59-5.94-1.05-8.71-1.38l3.69,0c3.69,0,7.51.18,11.45.37,2,.09,3.95.24,6,.36l3,.19,3.07.26c8.25.68,16.86,1.66,25.78,2.79L345,50l7,.92c2.35.31,4.75.6,7.16.87A178,178,0,0,0,388,52.94a100.92,100.92,0,0,0,13.72-1.62l1.64-.32,1.6-.38,1.6-.38c.52-.13,1-.27,1.54-.42q3.07-.85,5.93-1.9a39.69,39.69,0,0,0,10.13-5.19,15.67,15.67,0,0,0,3.47-3.48,8.65,8.65,0,0,0,1.54-3.94,7.92,7.92,0,0,0-.56-3.86Z"/><path class="cls-4" d="M229.28,73.3c-1.09,0-2.14-.8-2.84-2.21a9,9,0,0,1-.61-5.57,17,17,0,0,1,1.87-4.82,21.41,21.41,0,0,1,4.89-5.94A21,21,0,0,1,236,52.41a22.7,22.7,0,0,1,3.43-1.5,9.38,9.38,0,0,1,3.68-.71c.12.14-1,.72-2.44,1.74a19.9,19.9,0,0,0-2.17,1.88,15.72,15.72,0,0,0-1.9,2.45,17.92,17.92,0,0,0-2.19,5.54c-.4,1.78-.56,3.35-.74,4.32a17,17,0,0,1-1.64,5c-.73,1.31-1.66,2.16-2.76,2.18Z"/><path class="cls-4" d="M240.75,67a2.64,2.64,0,0,1-1.64-.39,3.51,3.51,0,0,1-.76-.61,4.61,4.61,0,0,1-.64-.85,6.45,6.45,0,0,1-.44-5,14,14,0,0,1,2.24-4.15,18.63,18.63,0,0,1,5.4-4.86,16.06,16.06,0,0,1,3.83-1.65,14.78,14.78,0,0,1,3.73-.54,11.33,11.33,0,0,1,2.49.24c.55.14.83.26.82.34s-1.31.22-2.89.69a10.17,10.17,0,0,0-2.36,1.08,9,9,0,0,0-2,1.75A13.52,13.52,0,0,0,246,57.44c-.5,1.48-.75,2.78-1,3.57a15.6,15.6,0,0,1-1.74,4.05,8.49,8.49,0,0,1-.55.72,4,4,0,0,1-.59.57,2.73,2.73,0,0,1-1.42.62Z"/><path class="cls-4" d="M253.33,60.11a3.15,3.15,0,0,1-2.88-4.32A8.8,8.8,0,0,1,252,53.32a13.29,13.29,0,0,1,3.6-3,11,11,0,0,1,2.48-1,9.7,9.7,0,0,1,2.39-.36c1.41,0,2.14.29,2.14.42s-.74.36-1.51.79a4.67,4.67,0,0,0-1.87,1.94c-.87,1.66-.93,3.82-1.24,4.75a5,5,0,0,1-1.77,2.34,4.55,4.55,0,0,1-2.9.9Z"/><path class="cls-4" d="M488.83,39.73l-1.86,0c-1.2,0-2.93,0-5.07,0-4.28,0-10.17-.33-16.62-.38-1.62,0-3.19,0-4.71,0s-2.95.07-4.34.17c-2.76.19-5.25.46-7.33.75-1,.14-2,.29-2.78.42s-1.52.27-2.09.39l-1.76.38,1.65-.56c.55-.17,1.22-.35,2-.57s1.7-.42,2.73-.64A72.7,72.7,0,0,1,456,38.5c1.4-.15,2.93-.27,4.48-.31s3.16-.09,4.8-.06c6.59.07,12.45.64,16.68,1l6.85.6Z"/><path class="cls-4" d="M540.45,18.57a11.07,11.07,0,0,0-2.39-2.08,15.11,15.11,0,0,0-2.76-1.43,21.25,21.25,0,0,0-2.89-1l-.75-.17-.39-.09-.39-.07-.79-.13-.4-.05-.4,0a24,24,0,0,0-3.15-.14c-1,0-2.06.09-3,.21a32.81,32.81,0,0,0-5.6,1.17c-.87.26-1.71.55-2.51.87-.4.16-.79.33-1.17.5-.19.08-.37.18-.56.27s-.37.17-.55.27l-.53.28-.51.3-.25.15-.24.15-.48.31-.45.32-.23.16-.21.17-.42.34-.38.34a4.25,4.25,0,0,0-.37.36l-.35.36c-.21.25-.43.48-.61.74a7.56,7.56,0,0,0-.89,1.54c0,.14-.1.27-.14.4l-.07.2-.05.19-.09.4c0,.13,0,.27-.05.4l0,.2c0,.06,0,.13,0,.19v.39l.06.39,0,.19a1.05,1.05,0,0,0,.05.19c0,.13.07.25.1.38l.15.36.08.18.09.18.2.34.23.34.12.16.13.16.27.31.3.29.15.15.16.13.33.27c.11.09.23.17.35.25l.17.13.19.11.37.23.39.2c.25.14.53.26.79.38a13.54,13.54,0,0,0,3.35.9,13.85,13.85,0,0,0,3.13.07,11.72,11.72,0,0,0,2.5-.47l.27-.08.24-.08.46-.17c.29-.13.55-.24.79-.36l.61-.34.19-.12c1.56-.47,2.41-1.59,1.94-2.69s-2.49-1.95-4.4-1.61-3,1.6-2.51,2.82a3.59,3.59,0,0,0,3.17,1.69l-.24.07-.44.12-.23.06-.25.05a11.89,11.89,0,0,1-2.23.28,12.87,12.87,0,0,1-2.64-.2,10.71,10.71,0,0,1-2.71-.87c-.21-.1-.43-.21-.63-.33l-.31-.18-.29-.2a1.21,1.21,0,0,1-.14-.1l-.14-.1-.27-.22-.25-.23-.13-.11-.11-.12c-.07-.09-.15-.17-.22-.25s-.14-.17-.2-.26l-.1-.13-.09-.14c-.05-.09-.11-.18-.17-.27l-.13-.28-.07-.15-.05-.14c0-.1-.07-.2-.1-.3l-.07-.3,0-.16v-.15c0-.11,0-.21,0-.31s0-.21,0-.32a.86.86,0,0,1,0-.16l0-.16.06-.32.09-.32,0-.16.06-.17c.05-.1.09-.21.14-.32.81-1.72,2.71-3.37,5.3-4.65l.49-.23.5-.23c.35-.15.69-.3,1.06-.43.72-.28,1.47-.53,2.25-.76a30,30,0,0,1,5-1c.87-.1,1.75-.15,2.64-.17a19.15,19.15,0,0,1,2.63.12l.33,0,.32,0,.64.1.31.06.32.07.64.15a18.2,18.2,0,0,1,2.43.8,12.78,12.78,0,0,1,2.26,1.17,8.81,8.81,0,0,1,2,1.69,6.86,6.86,0,0,1,1.28,2.2,6.32,6.32,0,0,1,.18.62c.06.21.08.43.12.64a6,6,0,0,1,0,1.34,7.69,7.69,0,0,1-.24,1.38,9.42,9.42,0,0,1-.55,1.4,10.19,10.19,0,0,1-.83,1.39c-.17.22-.33.46-.53.68l-.29.33-.32.33c-.1.12-.22.22-.33.33l-.35.32-.77.66-.39.33-.41.32-.42.32a4.63,4.63,0,0,1-.42.32l-.89.62c-.3.21-.62.4-.93.6s-.65.39-1,.58l-.51.28c-.16.1-.35.18-.52.27l-.53.27-.55.26-1.12.5-1.18.46c-.19.08-.4.15-.6.22l-.62.21q-2.48.84-5.21,1.48l-1.38.32-.69.15-.7.15L516,39l-1.43.27-1.44.26-1.45.26-1.44.23-.73.12-.73.1-1.46.19-1.48.16c-1,.11-2,.18-3,.27l-1.5.1-1.5.09c-1,0-2,.1-3,.12-2,.07-4,.08-6,.09s-4,0-6-.05l-5.93-.11L473,41c-3.81-.06-7.54-.15-11.11-.12-1.79,0-3.54.06-5.24.13s-3.36.22-5,.39a50.24,50.24,0,0,0-8.62,1.69,23.42,23.42,0,0,0-3.43,1.3,8.42,8.42,0,0,0-2.46,1.68,3,3,0,0,0-.65,1,2.3,2.3,0,0,0-.15,1l0,.24c0,.07,0,.15.05.22a2.26,2.26,0,0,0,.17.43,3,3,0,0,0,.55.73,4.21,4.21,0,0,0,1.51,1,3.92,3.92,0,0,0,1.51.23,2.85,2.85,0,0,0,.91-.18,1.61,1.61,0,0,0,.21-.09l.06,0a2.74,2.74,0,0,0-.3.08,3.3,3.3,0,0,1-.89.13,3.37,3.37,0,0,1-1.38-.27,3.79,3.79,0,0,1-1.37-.93,2.77,2.77,0,0,1-.47-.7,1.44,1.44,0,0,1-.13-.4,1.6,1.6,0,0,1-.05-.21V48a2.06,2.06,0,0,1,.18-.89,3,3,0,0,1,.64-.88A8.36,8.36,0,0,1,440,44.68a24.89,24.89,0,0,1,3.37-1.2A49.82,49.82,0,0,1,451.85,42c1.57-.14,3.2-.25,4.87-.31s3.41-.08,5.18-.06c3.54,0,7.23.16,11.06.28l5.8.16,5.94.19q3,.09,6.05.12c2,0,4.08,0,6.14,0,1,0,2.05,0,3.08-.09.51,0,1,0,1.54-.07l1.55-.09c1-.07,2.05-.13,3.07-.24l1.53-.15,1.53-.18.76-.1.75-.11,1.51-.22,1.47-.25,1.47-.25,1.46-.27,1.45-.28.72-.14.72-.15,1.43-.31c1.9-.43,3.75-.93,5.53-1.51l.66-.22.66-.23,1.28-.49,1.23-.53a6.36,6.36,0,0,0,.59-.28l.59-.28.57-.29.56-.3c.37-.2.74-.4,1.07-.62s.7-.42,1-.64l1-.66a5.59,5.59,0,0,0,.47-.33l.44-.34.45-.34c.15-.11.28-.23.42-.35l.83-.68.4-.37c.13-.12.27-.24.39-.37l.36-.37c.12-.12.23-.25.34-.38s.42-.51.62-.77a10.76,10.76,0,0,0,1-1.58,9.77,9.77,0,0,0,.65-1.6,8.36,8.36,0,0,0,.31-1.6,7.69,7.69,0,0,0-1.87-5.73Z"/><path class="cls-4" d="M465.77,32.07a1.11,1.11,0,0,1,.64.18,1.14,1.14,0,0,1,.47.58,1.84,1.84,0,0,1-.62,2A6.07,6.07,0,0,1,464.42,36a15.8,15.8,0,0,1-2.82.93c-1,.23-1.85.38-2.52.48a3.11,3.11,0,0,1-1.16.07s.26-.26.77-.56l1.9-1.08a15.54,15.54,0,0,0,1.87-1.24,7.34,7.34,0,0,0,1-.93c.37-.38.74-.69,1.09-1a2.14,2.14,0,0,1,1.23-.56Z"/><path class="cls-4" d="M456.27,32.61a1.27,1.27,0,0,1,1.15.45,1.48,1.48,0,0,1,.18,1.66,3.6,3.6,0,0,1-1.08,1.2,10.53,10.53,0,0,1-1.94,1.14,10.27,10.27,0,0,1-2.77,1c-.12-.08.73-.85,1.58-1.7a8.26,8.26,0,0,0,1.07-1.26,4.54,4.54,0,0,0,.48-.88c.17-.36.36-.67.53-1a1.3,1.3,0,0,1,.8-.62Z"/><path class="cls-4" d="M478,31.35a1.12,1.12,0,0,1,.69.23,1,1,0,0,1,.27.28.89.89,0,0,1,.18.38,2.16,2.16,0,0,1-.93,2.12,7.45,7.45,0,0,1-2.18,1.2,18.48,18.48,0,0,1-3.21.87c-1.08.21-2.09.34-2.84.41a3.61,3.61,0,0,1-1.29,0c0-.06.32-.28.91-.58l2.24-1.09A20.34,20.34,0,0,0,474,33.91a9.9,9.9,0,0,0,1.2-1c.46-.4.91-.73,1.33-1a2.46,2.46,0,0,1,1.42-.55Z"/><path class="cls-4" d="M405.82,31.45A11.11,11.11,0,0,1,408,28a17.33,17.33,0,0,1,1.48-1.49c.27-.23.56-.46.84-.68s.57-.44.87-.65A23.62,23.62,0,0,1,415,23l1-.45,1.07-.41.53-.19.55-.18,1.08-.33,1.11-.28.55-.13.57-.11,1.11-.21,1.12-.15.56-.07.55,0,1.11-.08,1.09,0h1.06a34.71,34.71,0,0,1,4,.3,25.71,25.71,0,0,1,3.64.75,12.75,12.75,0,0,1,3,1.3,5.18,5.18,0,0,1,1.82,1.78l.24.48c.06.16.12.32.16.47a5.08,5.08,0,0,1,.15.91,3.77,3.77,0,0,1-1.18,3,4.06,4.06,0,0,1-1.47.84,6.2,6.2,0,0,1-1.57.26,9.15,9.15,0,0,1-1.26-.07,4,4,0,0,1-1.24.2c-1.46,0-2.64-.76-2.64-1.7s1.18-1.7,2.64-1.7,2.65.76,2.65,1.7a1.68,1.68,0,0,1-1.2,1.42,7.17,7.17,0,0,0,1,0,4.88,4.88,0,0,0,1.41-.3,3.14,3.14,0,0,0,2-3.63,4.24,4.24,0,0,0-2.38-3.08,11.8,11.8,0,0,0-2.7-1,23.84,23.84,0,0,0-3.36-.54,32.57,32.57,0,0,0-3.74-.13l-1,0-1,.07-1,.11-.5.05-.48.08-1,.17-1,.23-.49.11-.48.14-1,.28-.94.33-.47.17-.46.2-.92.39-.88.43a20.61,20.61,0,0,0-3.25,2.06,8.38,8.38,0,0,0-.72.59l-.68.62A13.37,13.37,0,0,0,410.83,29,9,9,0,0,0,409.25,32a6.46,6.46,0,0,0-.25,3.14c.37,2.11,2,4.14,4.44,5.85a37.84,37.84,0,0,0,9.2,4.38q2.67.9,5.55,1.64c.48.13,1,.25,1.45.36l1.47.33,1.47.32,1.52.27a98.38,98.38,0,0,0,12.72,1.33,182.85,182.85,0,0,0,27.48-1.26c2.35-.26,4.68-.55,7-.85l7-.88,6.9-.87,6.81-.82c9-1,17.81-1.91,26.24-2.43l3.14-.2,3.12-.13c2.06-.08,4.1-.19,6.1-.23,4-.1,7.91-.13,11.68-.08a202.34,202.34,0,0,1,20.91,1.27,105.66,105.66,0,0,1,16.62,3.2,59.87,59.87,0,0,1,6.3,2.14c1,.36,1.78.77,2.6,1.13l1.16.58c.37.19.74.36,1.07.56a34.19,34.19,0,0,1,3.41,2.13c.45.34.88.64,1.24.93l.95.8c.29.24.51.46.7.65l.49.49.4.38-.45-.36-.55-.46c-.21-.17-.46-.38-.78-.6s-.65-.48-1-.75-.85-.55-1.33-.85a35.17,35.17,0,0,0-3.58-1.93c-.34-.18-.72-.33-1.1-.5l-1.19-.51c-.84-.31-1.69-.68-2.64-1a64.44,64.44,0,0,0-6.32-1.82,110.48,110.48,0,0,0-16.39-2.48l-2.31-.18a79.77,79.77,0,0,0-11.46,1c-3.28.52-6.79,1.26-10.5,2.19s-7.59,2.06-11.67,3.3-8.34,2.62-12.9,4c-1.15.32-2.34.63-3.53.95l-1.79.48-.91.23-.92.21-3.75.83-.95.21c-.31.07-.64.12-1,.18l-1.94.34-1.95.35-1,.17-1,.13-3.89.53-1,.13-1,.09-1.93.18-1.92.17-.95.09-.95,0-3.77.19-.93,0h-.93l-1.85,0-1.82,0c-.6,0-1.2,0-1.8,0l-3.54-.1c-.58,0-1.16,0-1.73-.07l-1.7-.12-3.34-.23c-1.09-.1-2.16-.23-3.21-.33l-1.56-.18c-.52,0-1-.1-1.53-.18-1-.15-2-.3-3-.43s-1.93-.27-2.84-.45l-2.69-.5-1.3-.24-.64-.12-.62-.14-4.7-1-4.1-1.06c-1.28-.32-2.44-.69-3.51-1l-2.92-.87c-3.44-1.14-5.32-1.79-5.32-1.79l5.65,1.27,3.05.63c1.11.22,2.31.49,3.63.7l4.19.75,4.74.71a173.41,173.41,0,0,0,23.57,1.71l3.37,0c.57,0,1.14,0,1.71,0l1.73-.07,1.75-.07.88,0,.88-.06,3.56-.26L494,57l.89-.1,1.81-.19,1.81-.19.92-.1.91-.13,3.67-.52.92-.14.91-.16,1.85-.33,1.84-.32c.3-.06.61-.1.91-.17l.9-.19,3.57-.76.89-.19.87-.22,1.72-.43c1.15-.29,2.29-.56,3.41-.85,4.51-1.22,8.89-2.47,13.14-3.58s8.36-2.1,12.31-2.86c3-.59,6-1.05,8.71-1.38l-3.69,0c-3.69,0-7.51.18-11.44.37-2,.09-4,.24-6,.36l-3,.19-3.08.26c-8.24.68-16.86,1.66-25.78,2.79L489.38,50l-7,.92c-2.35.31-4.75.6-7.17.87a177.89,177.89,0,0,1-28.8,1.15,100.55,100.55,0,0,1-13.72-1.62L431.07,51l-1.61-.38-1.59-.38c-.53-.13-1-.27-1.55-.42q-3.06-.85-5.93-1.9a39.86,39.86,0,0,1-10.13-5.19,15.4,15.4,0,0,1-3.46-3.48,8.56,8.56,0,0,1-1.55-3.94,8,8,0,0,1,.57-3.86Z"/><path class="cls-4" d="M605.15,73.3c1.08,0,2.13-.8,2.83-2.21a9,9,0,0,0,.62-5.57,17.36,17.36,0,0,0-1.87-4.82,21.41,21.41,0,0,0-4.89-5.94,21.08,21.08,0,0,0-3.43-2.35,22.19,22.19,0,0,0-3.42-1.5,9.42,9.42,0,0,0-3.69-.71c-.11.14,1,.72,2.44,1.74a18.18,18.18,0,0,1,2.17,1.88,15.72,15.72,0,0,1,1.9,2.45,18,18,0,0,1,2.2,5.54c.4,1.78.55,3.35.73,4.32a17,17,0,0,0,1.65,5c.73,1.31,1.66,2.16,2.76,2.18Z"/><path class="cls-4" d="M593.68,67a2.66,2.66,0,0,0,1.64-.39,3.77,3.77,0,0,0,.76-.61,4.57,4.57,0,0,0,.63-.85,6.45,6.45,0,0,0,.44-5,14,14,0,0,0-2.23-4.15,18.89,18.89,0,0,0-5.4-4.86,16,16,0,0,0-3.84-1.65,14.71,14.71,0,0,0-3.72-.54,11.26,11.26,0,0,0-2.49.24c-.56.14-.84.26-.82.34s1.31.22,2.89.69a10.56,10.56,0,0,1,2.36,1.08,9.14,9.14,0,0,1,2,1.75,13.52,13.52,0,0,1,2.46,4.46c.51,1.48.76,2.78,1,3.57a15.27,15.27,0,0,0,1.74,4.05,6.76,6.76,0,0,0,.54.72,4.57,4.57,0,0,0,.6.57,2.69,2.69,0,0,0,1.42.62Z"/><path class="cls-4" d="M581.09,60.11A3.16,3.16,0,0,0,584,55.79a8.89,8.89,0,0,0-1.57-2.47,13.23,13.23,0,0,0-3.59-3,11.08,11.08,0,0,0-2.49-1,9.63,9.63,0,0,0-2.39-.36c-1.4,0-2.13.29-2.13.42s.73.36,1.5.79a4.67,4.67,0,0,1,1.87,1.94c.88,1.66.93,3.82,1.25,4.75a5,5,0,0,0,1.76,2.34,4.57,4.57,0,0,0,2.9.9Z"/></g></svg>